<?xml version="1.0" encoding="UTF-8" standalone="no"?>
<svg width="282px" height="36px" viewBox="0 0 282 36" version="1.1" xmlns="http://www.w3.org/2000/svg" xmlns:xlink="http://www.w3.org/1999/xlink" xmlns:sketch="http://www.bohemiancoding.com/sketch/ns">
    <!-- Generator: Sketch 3.4.2 (15857) - http://www.bohemiancoding.com/sketch -->
    <title>DASHBOARD</title>
    <desc>Created with Sketch.</desc>
    <defs></defs>
    <g id="Page-1" stroke="none" stroke-width="1" fill="none" fill-rule="evenodd" sketch:type="MSPage">
        <path d="M28.0625,17.5390625 C28.0625,23.1953408 26.5273591,27.5195163 23.4570312,30.5117188 C20.3867034,33.5039212 15.9687788,35 10.203125,35 L0.7109375,35 L0.7109375,0.734375 L11.2109375,0.734375 C16.5390891,0.734375 20.6796727,2.21092273 23.6328125,5.1640625 C26.5859523,8.11720227 28.0625,12.242161 28.0625,17.5390625 L28.0625,17.5390625 Z M23.84375,17.6796875 C23.84375,13.2109152 22.7226675,9.84376133 20.4804688,7.578125 C18.23827,5.31248867 14.9062721,4.1796875 10.484375,4.1796875 L4.6953125,4.1796875 L4.6953125,31.5546875 L9.546875,31.5546875 C14.2968988,31.5546875 17.8671755,30.3867304 20.2578125,28.0507812 C22.6484495,25.7148321 23.84375,22.2578354 23.84375,17.6796875 L23.84375,17.6796875 Z M56.28125,35 L52.015625,24.1015625 L38.28125,24.1015625 L34.0625,35 L30.03125,35 L43.578125,0.59375 L46.9296875,0.59375 L60.40625,35 L56.28125,35 Z M50.7734375,20.515625 L46.7890625,9.8984375 C46.2734349,8.55468078 45.7421902,6.90625977 45.1953125,4.953125 C44.8515608,6.4531325 44.3593782,8.10155352 43.71875,9.8984375 L39.6875,20.515625 L50.7734375,20.515625 Z M84.453125,25.8828125 C84.453125,28.8984526 83.3593859,31.2499916 81.171875,32.9375 C78.9843641,34.6250084 76.0156437,35.46875 72.265625,35.46875 C68.2031047,35.46875 65.0781359,34.9453177 62.890625,33.8984375 L62.890625,30.0546875 C64.296882,30.6484405 65.8281167,31.1171858 67.484375,31.4609375 C69.1406333,31.8046892 70.7812419,31.9765625 72.40625,31.9765625 C75.0625133,31.9765625 77.0624933,31.4726613 78.40625,30.4648438 C79.7500067,29.4570262 80.421875,28.0546965 80.421875,26.2578125 C80.421875,25.0703066 80.1835961,24.09766 79.7070312,23.3398438 C79.2304664,22.5820275 78.4335993,21.8828157 77.3164062,21.2421875 C76.1992132,20.6015593 74.5000114,19.8750041 72.21875,19.0625 C69.0312341,17.9218693 66.7539131,16.5703203 65.3867188,15.0078125 C64.0195244,13.4453047 63.3359375,11.4062626 63.3359375,8.890625 C63.3359375,6.2499868 64.3281151,4.14844531 66.3125,2.5859375 C68.2968849,1.02342969 70.9218587,0.2421875 74.1875,0.2421875 C77.593767,0.2421875 80.7265482,0.86718125 83.5859375,2.1171875 L82.34375,5.5859375 C79.5156109,4.39843156 76.7656384,3.8046875 74.09375,3.8046875 C71.9843645,3.8046875 70.3359434,4.25780797 69.1484375,5.1640625 C67.9609316,6.07031703 67.3671875,7.32811695 67.3671875,8.9375 C67.3671875,10.1250059 67.5859353,11.0976525 68.0234375,11.8554688 C68.4609397,12.613285 69.1992136,13.3085906 70.2382812,13.9414062 C71.2773489,14.5742219 72.8671768,15.2734337 75.0078125,16.0390625 C78.6015805,17.3203189 81.074212,18.6953052 82.4257812,20.1640625 C83.7773505,21.6328198 84.453125,23.5390508 84.453125,25.8828125 L84.453125,25.8828125 Z M117.476562,35 L113.492188,35 L113.492188,18.875 L95.4453125,18.875 L95.4453125,35 L91.4609375,35 L91.4609375,0.734375 L95.4453125,0.734375 L95.4453125,15.3125 L113.492188,15.3125 L113.492188,0.734375 L117.476562,0.734375 L117.476562,35 Z M126.875,0.734375 L136.554688,0.734375 C141.101585,0.734375 144.390615,1.4140557 146.421875,2.7734375 C148.453135,4.1328193 149.46875,6.28123531 149.46875,9.21875 C149.46875,11.2500102 148.902349,12.9257746 147.769531,14.2460938 C146.636713,15.5664129 144.984386,16.421873 142.8125,16.8125 L142.8125,17.046875 C148.015651,17.9375045 150.617188,20.6718521 150.617188,25.25 C150.617188,28.3125153 149.582042,30.7031164 147.511719,32.421875 C145.441396,34.1406336 142.546894,35 138.828125,35 L126.875,35 L126.875,0.734375 Z M130.859375,15.40625 L137.421875,15.40625 C140.234389,15.40625 142.257806,14.9648482 143.492188,14.0820312 C144.726569,13.1992143 145.34375,11.710948 145.34375,9.6171875 C145.34375,7.69530289 144.656257,6.30859801 143.28125,5.45703125 C141.906243,4.60546449 139.718765,4.1796875 136.71875,4.1796875 L130.859375,4.1796875 L130.859375,15.40625 Z M130.859375,18.78125 L130.859375,31.6015625 L138.007812,31.6015625 C140.773451,31.6015625 142.855462,31.0664116 144.253906,29.9960938 C145.652351,28.9257759 146.351562,27.2500114 146.351562,24.96875 C146.351562,22.8437394 145.636726,21.281255 144.207031,20.28125 C142.777337,19.281245 140.601577,18.78125 137.679688,18.78125 L130.859375,18.78125 Z M187.71875,17.8203125 C187.71875,23.3047149 186.332045,27.6171718 183.558594,30.7578125 C180.785142,33.8984532 176.929712,35.46875 171.992188,35.46875 C166.945287,35.46875 163.050795,33.9257967 160.308594,30.8398438 C157.566393,27.7538908 156.195312,23.3984656 156.195312,17.7734375 C156.195312,12.1952846 157.570299,7.8711091 160.320312,4.80078125 C163.070326,1.7304534 166.976537,0.1953125 172.039062,0.1953125 C176.960962,0.1953125 180.804674,1.75779687 183.570312,4.8828125 C186.335951,8.00782813 187.71875,12.320285 187.71875,17.8203125 L187.71875,17.8203125 Z M160.414062,17.8203125 C160.414062,22.4609607 161.402334,25.9804568 163.378906,28.3789062 C165.355479,30.7773557 168.226544,31.9765625 171.992188,31.9765625 C175.789081,31.9765625 178.65624,30.781262 180.59375,28.390625 C182.53126,25.999988 183.5,22.4765858 183.5,17.8203125 C183.5,13.2109145 182.535166,9.71485566 180.605469,7.33203125 C178.675772,4.94920684 175.820331,3.7578125 172.039062,3.7578125 C168.242169,3.7578125 165.355479,4.95701926 163.378906,7.35546875 C161.402334,9.75391824 160.414062,13.2421646 160.414062,17.8203125 L160.414062,17.8203125 Z M215.9375,35 L211.671875,24.1015625 L197.9375,24.1015625 L193.71875,35 L189.6875,35 L203.234375,0.59375 L206.585938,0.59375 L220.0625,35 L215.9375,35 Z M210.429688,20.515625 L206.445312,9.8984375 C205.929685,8.55468078 205.39844,6.90625977 204.851562,4.953125 C204.507811,6.4531325 204.015628,8.10155352 203.375,9.8984375 L199.34375,20.515625 L210.429688,20.515625 Z M228.757812,20.75 L228.757812,35 L224.773438,35 L224.773438,0.734375 L234.171875,0.734375 C238.375021,0.734375 241.480459,1.53905445 243.488281,3.1484375 C245.496104,4.75782055 246.5,7.17967133 246.5,10.4140625 C246.5,14.9453352 244.203148,18.0078045 239.609375,19.6015625 L248.914062,35 L244.203125,35 L235.90625,20.75 L228.757812,20.75 Z M228.757812,17.328125 L234.21875,17.328125 C237.031264,17.328125 239.093743,16.7695368 240.40625,15.6523438 C241.718757,14.5351507 242.375,12.8593862 242.375,10.625 C242.375,8.35936367 241.707038,6.7265675 240.371094,5.7265625 C239.03515,4.7265575 236.89064,4.2265625 233.9375,4.2265625 L228.757812,4.2265625 L228.757812,17.328125 Z M281.796875,17.5390625 C281.796875,23.1953408 280.261734,27.5195163 277.191406,30.5117188 C274.121078,33.5039212 269.703154,35 263.9375,35 L254.445312,35 L254.445312,0.734375 L264.945312,0.734375 C270.273464,0.734375 274.414048,2.21092273 277.367188,5.1640625 C280.320327,8.11720227 281.796875,12.242161 281.796875,17.5390625 L281.796875,17.5390625 Z M277.578125,17.6796875 C277.578125,13.2109152 276.457042,9.84376133 274.214844,7.578125 C271.972645,5.31248867 268.640647,4.1796875 264.21875,4.1796875 L258.429688,4.1796875 L258.429688,31.5546875 L263.28125,31.5546875 C268.031274,31.5546875 271.601551,30.3867304 273.992188,28.0507812 C276.382824,25.7148321 277.578125,22.2578354 277.578125,17.6796875 L277.578125,17.6796875 Z" id="DASHBOARD" fill="#FFFFFF" sketch:type="MSShapeGroup"></path>
    </g>
</svg>