<?xml version="1.0" encoding="UTF-8" standalone="no"?>
<svg width="130px" height="28px" viewBox="0 0 130 28" version="1.1" xmlns="http://www.w3.org/2000/svg" xmlns:xlink="http://www.w3.org/1999/xlink">
    <!-- Generator: Sketch 3.6.1 (26313) - http://www.bohemiancoding.com/sketch -->
    <title>GOV.AU</title>
    <desc>Created with Sketch.</desc>
    <defs></defs>
    <g id="Page-1" stroke="none" stroke-width="1" fill="none" fill-rule="evenodd">
        <path d="M21.3902439,23.7439024 L22.304878,27 L24.5,27 L24.5,13.2439024 L13.0487805,13.2439024 L13.0487805,16.1707317 L21.3902439,16.1707317 C21.4390246,17.3658596 21.2804896,18.4817021 20.9146341,19.5182927 C20.5487787,20.5548832 20.0061012,21.4573132 19.2865854,22.2256098 C18.5670696,22.9939063 17.6829321,23.5975588 16.6341463,24.0365854 C15.5853606,24.475612 14.3780556,24.695122 13.0121951,24.695122 C11.5487732,24.695122 10.2622007,24.4085395 9.15243902,23.8353659 C8.04267738,23.2621923 7.10975988,22.4939073 6.35365854,21.5304878 C5.5975572,20.5670684 5.0243922,19.4573234 4.63414634,18.2012195 C4.24390049,16.9451157 4.04878049,15.6341532 4.04878049,14.2682927 C4.04878049,12.8780418 4.21951049,11.5182993 4.56097561,10.1890244 C4.90244073,8.85974945 5.43292323,7.67683445 6.15243902,6.6402439 C6.87195482,5.60365335 7.79877482,4.76829585 8.93292683,4.13414634 C10.0670788,3.49999683 11.4268213,3.18292683 13.0121951,3.18292683 C13.9878098,3.18292683 14.9085323,3.29877933 15.7743902,3.5304878 C16.6402482,3.76219628 17.4146307,4.10975378 18.097561,4.57317073 C18.7804912,5.03658768 19.3536562,5.62804518 19.8170732,6.34756098 C20.2804901,7.06707677 20.5975601,7.92682427 20.7682927,8.92682927 L24.2439024,8.92682927 C23.9999988,7.39023622 23.5426863,6.07927372 22.8719512,4.99390244 C22.2012162,3.90853116 21.3719562,3.01219866 20.3841463,2.30487805 C19.3963365,1.59755744 18.2743965,1.07926994 17.0182927,0.75 C15.7621888,0.420730061 14.4268363,0.256097561 13.0121951,0.256097561 C10.939014,0.256097561 9.12805652,0.640240061 7.57926829,1.40853659 C6.03048006,2.17683311 4.73781006,3.20731061 3.70121951,4.5 C2.66462896,5.79268939 1.88414896,7.29877189 1.3597561,9.01829268 C0.835363232,10.7378135 0.573170732,12.548771 0.573170732,14.4512195 C0.573170732,16.1585451 0.853655732,17.8048701 1.41463415,19.3902439 C1.97561256,20.9756177 2.79267756,22.3780427 3.86585366,23.597561 C4.93902976,24.8170793 6.24389476,25.7865818 7.7804878,26.5060976 C9.31708085,27.2256134 11.0609659,27.5853659 13.0121951,27.5853659 C14.5487882,27.5853659 16.0731632,27.2865884 17.5853659,26.6890244 C19.0975685,26.0914604 20.3658485,25.1097629 21.3902439,23.7439024 L21.3902439,23.7439024 Z M31.6341463,13.9390244 C31.6341463,12.6219446 31.8048763,11.3231771 32.1463415,10.0426829 C32.4878066,8.76218872 33.0243866,7.60976122 33.7560976,6.58536585 C34.4878085,5.56097049 35.4268235,4.73780799 36.5731707,4.11585366 C37.7195179,3.49389933 39.0853579,3.18292683 40.6707317,3.18292683 C42.2561055,3.18292683 43.6219455,3.49389933 44.7682927,4.11585366 C45.9146399,4.73780799 46.8536549,5.56097049 47.5853659,6.58536585 C48.3170768,7.60976122 48.8536568,8.76218872 49.195122,10.0426829 C49.5365871,11.3231771 49.7073171,12.6219446 49.7073171,13.9390244 C49.7073171,15.2561041 49.5365871,16.5548716 49.195122,17.8353659 C48.8536568,19.1158601 48.3170768,20.2682876 47.5853659,21.2926829 C46.8536549,22.3170783 45.9146399,23.1402408 44.7682927,23.7621951 C43.6219455,24.3841495 42.2561055,24.695122 40.6707317,24.695122 C39.0853579,24.695122 37.7195179,24.3841495 36.5731707,23.7621951 C35.4268235,23.1402408 34.4878085,22.3170783 33.7560976,21.2926829 C33.0243866,20.2682876 32.4878066,19.1158601 32.1463415,17.8353659 C31.8048763,16.5548716 31.6341463,15.2561041 31.6341463,13.9390244 L31.6341463,13.9390244 Z M28.1585366,13.9390244 C28.1585366,15.7195211 28.4207291,17.4329186 28.945122,19.0792683 C29.4695148,20.725618 30.2560923,22.1829205 31.304878,23.4512195 C32.3536638,24.7195185 33.6585288,25.725606 35.2195122,26.4695122 C36.7804956,27.2134184 38.5975506,27.5853659 40.6707317,27.5853659 C42.7439128,27.5853659 44.5609678,27.2134184 46.1219512,26.4695122 C47.6829346,25.725606 48.9877996,24.7195185 50.0365854,23.4512195 C51.0853711,22.1829205 51.8719486,20.725618 52.3963415,19.0792683 C52.9207343,17.4329186 53.1829268,15.7195211 53.1829268,13.9390244 C53.1829268,12.1585277 52.9207343,10.4451302 52.3963415,8.79878049 C51.8719486,7.15243079 51.0853711,5.69512829 50.0365854,4.42682927 C48.9877996,3.15853024 47.6829346,2.14634524 46.1219512,1.3902439 C44.5609678,0.634142561 42.7439128,0.256097561 40.6707317,0.256097561 C38.5975506,0.256097561 36.7804956,0.634142561 35.2195122,1.3902439 C33.6585288,2.14634524 32.3536638,3.15853024 31.304878,4.42682927 C30.2560923,5.69512829 29.4695148,7.15243079 28.945122,8.79878049 C28.4207291,10.4451302 28.1585366,12.1585277 28.1585366,13.9390244 L28.1585366,13.9390244 Z M67.7073171,27 L77,0.87804878 L73.3780488,0.87804878 L65.8414634,23.5243902 L65.7682927,23.5243902 L58.304878,0.87804878 L54.5731707,0.87804878 L63.7560976,27 L67.7073171,27 Z M75.2439024,22.9390244 L75.2439024,27 L79.304878,27 L79.304878,22.9390244 L75.2439024,22.9390244 Z M89.7317073,16.2073171 L94.1585366,4.02439024 L94.2317073,4.02439024 L98.5853659,16.2073171 L89.7317073,16.2073171 Z M92.3292683,0.87804878 L82.1585366,27 L85.7073171,27 L88.6341463,19.1341463 L99.6829268,19.1341463 L102.536585,27 L106.378049,27 L96.1707317,0.87804878 L92.3292683,0.87804878 Z M129.792683,17.5609756 L129.792683,0.87804878 L126.317073,0.87804878 L126.317073,17.5609756 C126.317073,19.9024507 125.737811,21.6768232 124.579268,22.8841463 C123.420726,24.0914695 121.731718,24.695122 119.512195,24.695122 C117.17072,24.695122 115.378055,24.0914695 114.134146,22.8841463 C112.890238,21.6768232 112.268293,19.9024507 112.268293,17.5609756 L112.268293,0.87804878 L108.792683,0.87804878 L108.792683,17.5609756 C108.792683,21.0487979 109.737795,23.5914554 111.628049,25.1890244 C113.518302,26.7865934 116.146325,27.5853659 119.512195,27.5853659 C122.804895,27.5853659 125.341455,26.7500084 127.121951,25.0792683 C128.902448,23.4085282 129.792683,20.9024557 129.792683,17.5609756 L129.792683,17.5609756 Z" id="GOV.AU" fill="#FFFFFF"></path>
    </g>
</svg>