<?xml version="1.0" encoding="UTF-8" standalone="no"?>
<svg width="316px" height="33px" viewBox="0 0 316 33" version="1.1" xmlns="http://www.w3.org/2000/svg" xmlns:xlink="http://www.w3.org/1999/xlink">
    <!-- Generator: Sketch 3.6.1 (26313) - http://www.bohemiancoding.com/sketch -->
    <title>PERFORMANCE</title>
    <desc>Created with Sketch.</desc>
    <defs></defs>
    <g id="Page-1" stroke="none" stroke-width="1" fill="none" fill-rule="evenodd">
        <path d="M20.9433594,10.0859375 C20.9433594,13.3659018 19.8691514,15.8795486 17.7207031,17.6269531 C15.5722549,19.3743577 12.5143428,20.2480469 8.546875,20.2480469 L5.28125,20.2480469 L5.28125,32 L0.146484375,32 L0.146484375,0.58984375 L9.19140625,0.58984375 C13.115905,0.58984375 16.0556543,1.39191906 18.0107422,2.99609375 C19.9658301,4.60026844 20.9433594,6.96352605 20.9433594,10.0859375 L20.9433594,10.0859375 Z M5.28125,15.9296875 L8.00976562,15.9296875 C10.6451955,15.9296875 12.5787699,15.4713587 13.8105469,14.5546875 C15.0423239,13.6380163 15.6582031,12.2057389 15.6582031,10.2578125 C15.6582031,8.45311598 15.1067763,7.10677527 14.0039062,6.21875 C12.9010362,5.33072473 11.1823033,4.88671875 8.84765625,4.88671875 L5.28125,4.88671875 L5.28125,15.9296875 Z M44.984375,32 L27.2167969,32 L27.2167969,0.58984375 L44.984375,0.58984375 L44.984375,4.9296875 L32.3515625,4.9296875 L32.3515625,13.4804688 L44.1894531,13.4804688 L44.1894531,17.7773438 L32.3515625,17.7773438 L32.3515625,27.6386719 L44.984375,27.6386719 L44.984375,32 Z M56.9082031,15.1992188 L60.4746094,15.1992188 C62.8665484,15.1992188 64.599604,14.7552128 65.6738281,13.8671875 C66.7480522,12.9791622 67.2851562,11.6614671 67.2851562,9.9140625 C67.2851562,8.13801195 66.7050839,6.86328512 65.5449219,6.08984375 C64.3847598,5.31640238 62.6373815,4.9296875 60.3027344,4.9296875 L56.9082031,4.9296875 L56.9082031,15.1992188 Z M56.9082031,19.453125 L56.9082031,32 L51.7734375,32 L51.7734375,0.58984375 L60.6464844,0.58984375 C64.6998901,0.58984375 67.7005111,1.34895074 69.6484375,2.8671875 C71.5963639,4.38542426 72.5703125,6.67706801 72.5703125,9.7421875 C72.5703125,13.6523633 70.5364787,16.4381427 66.46875,18.0996094 L75.3417969,32 L69.4980469,32 L61.9785156,19.453125 L56.9082031,19.453125 Z M84.9882812,32 L79.8964844,32 L79.8964844,0.58984375 L97.6210938,0.58984375 L97.6210938,4.9296875 L84.9882812,4.9296875 L84.9882812,14.7480469 L96.8261719,14.7480469 L96.8261719,19.109375 L84.9882812,19.109375 L84.9882812,32 Z M131.201172,16.2519531 C131.201172,21.3652599 129.922864,25.3398296 127.366211,28.1757812 C124.809558,31.0117329 121.189477,32.4296875 116.505859,32.4296875 C111.76495,32.4296875 108.123385,31.022475 105.581055,28.2080078 C103.038724,25.3935406 101.767578,21.3939061 101.767578,16.2089844 C101.767578,11.0240626 103.045886,7.0423316 105.602539,4.26367188 C108.159192,1.48501215 111.807919,0.095703125 116.548828,0.095703125 C121.218122,0.095703125 124.827461,1.50649631 127.376953,4.328125 C129.926445,7.14975369 131.201172,11.1243233 131.201172,16.2519531 L131.201172,16.2519531 Z M107.224609,16.2519531 C107.224609,20.11916 108.005201,23.0517478 109.566406,25.0498047 C111.127612,27.0478616 113.44074,28.046875 116.505859,28.046875 C119.556656,28.046875 121.859042,27.0586036 123.413086,25.0820312 C124.96713,23.1054589 125.744141,20.1621289 125.744141,16.2519531 C125.744141,12.3990693 124.974292,9.4772235 123.43457,7.48632812 C121.894849,5.49543275 119.599625,4.5 116.548828,4.5 C113.469386,4.5 111.145516,5.49543275 109.577148,7.48632812 C108.008781,9.4772235 107.224609,12.3990693 107.224609,16.2519531 L107.224609,16.2519531 Z M143.082031,15.1992188 L146.648438,15.1992188 C149.040377,15.1992188 150.773432,14.7552128 151.847656,13.8671875 C152.92188,12.9791622 153.458984,11.6614671 153.458984,9.9140625 C153.458984,8.13801195 152.878912,6.86328512 151.71875,6.08984375 C150.558588,5.31640238 148.81121,4.9296875 146.476562,4.9296875 L143.082031,4.9296875 L143.082031,15.1992188 Z M143.082031,19.453125 L143.082031,32 L137.947266,32 L137.947266,0.58984375 L146.820312,0.58984375 C150.873718,0.58984375 153.874339,1.34895074 155.822266,2.8671875 C157.770192,4.38542426 158.744141,6.67706801 158.744141,9.7421875 C158.744141,13.6523633 156.710307,16.4381427 152.642578,18.0996094 L161.515625,32 L155.671875,32 L148.152344,19.453125 L143.082031,19.453125 Z M179.648438,32 L170.539062,5.76757812 L170.367188,5.76757812 C170.610678,9.66343094 170.732422,13.3157382 170.732422,16.7246094 L170.732422,32 L166.070312,32 L166.070312,0.58984375 L173.310547,0.58984375 L182.033203,25.5761719 L182.162109,25.5761719 L191.142578,0.58984375 L198.404297,0.58984375 L198.404297,32 L193.462891,32 L193.462891,16.4667969 C193.462891,14.9055912 193.502278,12.8717573 193.581055,10.3652344 C193.659831,7.85871143 193.727864,6.34049744 193.785156,5.81054688 L193.613281,5.81054688 L184.181641,32 L179.648438,32 Z M226.162109,32 L223.025391,23.2773438 L211.015625,23.2773438 L207.943359,32 L202.529297,32 L214.28125,0.4609375 L219.867188,0.4609375 L231.619141,32 L226.162109,32 Z M221.671875,18.8515625 L218.728516,10.3007812 C218.513671,9.72786172 218.216473,8.82552699 217.836914,7.59375 C217.457355,6.36197301 217.195964,5.45963828 217.052734,4.88671875 C216.666014,6.64844631 216.100264,8.57485934 215.355469,10.6660156 L212.519531,18.8515625 L221.671875,18.8515625 Z M261.933594,32 L255.638672,32 L240.191406,6.97070312 L240.019531,6.97070312 L240.126953,8.3671875 C240.327475,11.0312633 240.427734,13.4661348 240.427734,15.671875 L240.427734,32 L235.765625,32 L235.765625,0.58984375 L241.996094,0.58984375 L257.400391,25.4902344 L257.529297,25.4902344 C257.500651,25.1608056 257.44336,23.9612734 257.357422,21.8916016 C257.271484,19.8219298 257.228516,18.2070371 257.228516,17.046875 L257.228516,0.58984375 L261.933594,0.58984375 L261.933594,32 Z M283.589844,4.54296875 C280.639308,4.54296875 278.319019,5.58853121 276.628906,7.6796875 C274.938794,9.77084379 274.09375,12.6568826 274.09375,16.3378906 C274.09375,20.1907745 274.906567,23.1054589 276.532227,25.0820312 C278.157886,27.0586036 280.510401,28.046875 283.589844,28.046875 C284.921882,28.046875 286.210931,27.9143893 287.457031,27.6494141 C288.703131,27.3844388 289.999342,27.0442729 291.345703,26.6289062 L291.345703,31.0332031 C288.882149,31.9641974 286.089208,32.4296875 282.966797,32.4296875 C278.369118,32.4296875 274.838554,31.0367978 272.375,28.2509766 C269.911446,25.4651553 268.679688,21.4798436 268.679688,16.2949219 C268.679688,13.0292805 269.277663,10.1718872 270.473633,7.72265625 C271.669602,5.27342525 273.399077,3.39714193 275.662109,2.09375 C277.925142,0.790358066 280.582016,0.138671875 283.632812,0.138671875 C286.841162,0.138671875 289.805976,0.811842227 292.527344,2.15820312 L290.679688,6.43359375 C289.619786,5.93228916 288.499029,5.49186388 287.317383,5.11230469 C286.135736,4.7327455 284.893236,4.54296875 283.589844,4.54296875 L283.589844,4.54296875 Z M315.880859,32 L298.113281,32 L298.113281,0.58984375 L315.880859,0.58984375 L315.880859,4.9296875 L303.248047,4.9296875 L303.248047,13.4804688 L315.085938,13.4804688 L315.085938,17.7773438 L303.248047,17.7773438 L303.248047,27.6386719 L315.880859,27.6386719 L315.880859,32 Z" id="PERFORMANCE" fill="#FFFFFF"></path>
    </g>
</svg>