<?xml version="1.0" encoding="UTF-8" standalone="no"?>
<svg width="394px" height="29px" viewBox="0 0 394 29" version="1.1" xmlns="http://www.w3.org/2000/svg" xmlns:xlink="http://www.w3.org/1999/xlink">
    <!-- Generator: Sketch 40.3 (33839) - http://www.bohemiancoding.com/sketch -->
    <title>Group 2</title>
    <desc>Created with Sketch.</desc>
    <defs></defs>
    <g id="Symbols" stroke="none" stroke-width="1" fill="none" fill-rule="evenodd">
        <g id="Header_2_Logged_in" transform="translate(-151.000000, -40.000000)">
            <g id="Group-2" transform="translate(151.000000, 40.000000)">
                <g id="Group-3">
                    <g id="Group-3-Copy">
                        <g id="Group">
                            <path d="M13.4518937,23.7226236 C14.2674415,23.7226236 14.9891734,23.645652 15.6180183,23.4906827 C16.2477921,23.3357134 16.8413399,23.130456 17.4005196,22.8728579 L17.4005196,18.6076092 L14.8851399,18.6076092 C14.5117342,18.6076092 14.220998,18.4977965 14.0120022,18.2781711 C13.8011488,18.059572 13.6971153,17.7835008 13.6971153,17.4489312 L13.6971153,13.8589794 L22.7461658,13.8589794 L22.7461658,25.7300409 C22.0940991,26.2575524 21.4150952,26.7111712 20.7110119,27.0898711 C20.0069285,27.4695973 19.2545439,27.7826148 18.4575735,28.0268712 C17.6596743,28.2721537 16.8088295,28.4507277 15.9068968,28.5677244 C15.0040353,28.6826685 14.0342951,28.7411669 12.9986052,28.7411669 C11.1343633,28.7411669 9.41038082,28.3778613 7.82665766,27.6502238 C6.24200564,26.9236126 4.87099368,25.919904 3.71269294,24.6390978 C2.55346332,23.359318 1.64502857,21.8404132 0.987388689,20.0834099 C0.32881994,18.3274329 0,16.4195654 0,14.3608337 C0,12.2631031 0.313958022,10.3357362 0.942802935,8.57873287 C1.57257672,6.82275585 2.47265164,5.30795626 3.64209882,4.03330783 C4.81247488,2.75968569 6.22807259,1.76829247 7.88796307,1.06118074 C9.54785356,0.353042721 11.4018779,0 13.4518937,0 C14.5117342,0 15.5074828,0.0964709762 16.4400681,0.288386642 C17.3717246,0.481328594 18.2309293,0.745084348 19.0158243,1.08068019 C19.8025771,1.41524975 20.5215224,1.81344909 21.1735891,2.27733081 C21.8265846,2.74018624 22.408986,3.24204057 22.9207933,3.78186752 L21.209815,6.65854993 C21.0463339,6.92948969 20.8512712,7.1419311 20.6236981,7.29587414 C20.3970538,7.45084348 20.1490456,7.527815 19.881531,7.527815 C19.532276,7.527815 19.1700167,7.39952913 18.7984688,7.1419311 C18.3321761,6.83199243 17.8918917,6.56515781 17.4794735,6.34040097 C17.0661264,6.11564412 16.6434906,5.93193875 16.212495,5.78928486 C15.7814994,5.64868354 15.327282,5.54605484 14.8498429,5.48139876 C14.3714749,5.41674268 13.8364458,5.38492779 13.2419691,5.38492779 C12.1356851,5.38492779 11.1399365,5.60044805 10.2556524,6.03148858 C9.36951054,6.4635554 8.61526819,7.07009101 7.99292537,7.85520055 C7.36965368,8.64133638 6.88942795,9.58346782 6.55131931,10.6836475 C6.21321067,11.7838271 6.04415635,13.0102401 6.04415635,14.3608337 C6.04415635,15.853055 6.2308592,17.1790178 6.60333602,18.3366695 C6.97581285,19.4953475 7.49133563,20.473399 8.14990438,21.270824 C8.80754426,22.0692752 9.58872384,22.6768371 10.4906565,23.0955622 C11.393518,23.513261 12.3809067,23.7226236 13.4518937,23.7226236 L13.4518937,23.7226236 Z" id="Fill-1" fill="#FFFFFF"></path>
                            <path d="M47.985808,14.3608337 C47.985808,12.9712411 47.8183914,11.719171 47.4845092,10.6066759 C47.1506271,9.49315457 46.6702553,8.55102312 46.0443452,7.77822903 C45.4184351,7.00646122 44.6517428,6.41429363 43.7452195,6.00172626 C42.8386961,5.59121147 41.8066103,5.38492779 40.6499132,5.38492779 C39.4818013,5.38492779 38.4411544,5.59121147 37.5279725,6.00172626 C36.6157418,6.41429363 35.8461957,7.00646122 35.2202856,7.77822903 C34.5943755,8.55102312 34.1140038,9.49315457 33.7801216,10.6066759 C33.4462395,11.719171 33.2788228,12.9712411 33.2788228,14.3608337 C33.2788228,15.7627417 33.4462395,17.0219959 33.7801216,18.1344909 C34.1140038,19.2480123 34.5943755,20.1901438 35.2202856,20.9629379 C35.8461957,21.7347057 36.6157418,22.3227681 37.5279725,22.7281515 C38.4411544,23.1335348 39.4818013,23.3357134 40.6499132,23.3357134 C41.8066103,23.3357134 42.8386961,23.1335348 43.7452195,22.7281515 C44.6517428,22.3227681 45.4184351,21.7347057 46.0443452,20.9629379 C46.6702553,20.1901438 47.1506271,19.2480123 47.4845092,18.1344909 C47.8183914,17.0219959 47.985808,15.7627417 47.985808,14.3608337 M54.1764206,14.3608337 C54.1764206,16.3939082 53.8510995,18.2853551 53.2004574,20.0351744 C52.5507665,21.7849937 51.6356821,23.3080036 50.4552042,24.6011252 C49.2737751,25.8932205 47.8507332,26.9071921 46.1870299,27.639961 C44.5233266,28.3737561 42.6779381,28.7411669 40.6499132,28.7411669 C38.6218883,28.7411669 36.7736461,28.3737561 35.1042354,27.639961 C33.4338735,26.9071921 32.0060755,25.8932205 30.818939,24.6011252 C29.6318025,23.3080036 28.7138644,21.7849937 28.0641735,20.0351744 C27.4135313,18.2853551 27.0882103,16.3939082 27.0882103,14.3608337 C27.0882103,12.3277592 27.4135313,10.4363123 28.0641735,8.68546672 C28.7138644,6.93564741 29.6318025,5.41674268 30.818939,4.12977881 C32.0060755,2.84281494 33.4338735,1.83294855 35.1042354,1.09915336 C36.7736461,0.365358165 38.6218883,0 40.6499132,0 C42.6779381,0 44.5233266,0.369463313 46.1870299,1.10941623 C47.8507332,1.84936914 49.2737751,2.86334068 50.4552042,4.14927826 C51.6356821,5.43624214 52.5507665,6.95514687 53.2004574,8.70496617 C53.8510995,10.4547855 54.1764206,12.3400747 54.1764206,14.3608337" id="Fill-3" fill="#FFFFFF"></path>
                            <path d="M55.2182748,0 L60.0246937,0 C60.5423514,0 60.9669998,0.126061642 61.29676,0.379193419 C61.6265202,0.632325196 61.8623316,0.967144917 62.0041942,1.38466108 L66.9862973,16.1792554 C67.2108348,16.824691 67.4372514,17.5266022 67.6664864,18.284989 C67.8966608,19.0433759 68.1118035,19.8400855 68.3119144,20.6751178 C68.4763247,19.8400855 68.6679802,19.0433759 68.8859414,18.284989 C69.1039025,17.5266022 69.3190452,16.824691 69.5304299,16.1792554 L74.4787114,1.38466108 C74.5961474,1.02967149 74.8263219,0.710987661 75.1673559,0.426592596 C75.5093294,0.142197532 75.9274014,0 76.4225114,0 L81.2646308,0 L70.9443588,27.6357374 L65.5376073,27.6357374 L55.2182748,0 Z" id="Fill-5" fill="#FFFFFF"></path>
                            <path d="M78.1390681,25.4243629 C78.1390681,24.9593711 78.2183875,24.526341 78.3789149,24.1252727 C78.538498,23.7252354 78.7566264,23.3757183 79.0351887,23.0787834 C79.3137509,22.7818485 79.6423599,22.544713 80.0210157,22.37047 C80.4006158,22.1962269 80.8142099,22.1085899 81.2646308,22.1085899 C81.7018319,22.1085899 82.1107046,22.1962269 82.4893604,22.37047 C82.8689605,22.544713 83.2004023,22.7818485 83.4846302,23.0787834 C83.7688581,23.3757183 83.9907636,23.7252354 84.1503468,24.1252727 C84.3099299,24.526341 84.3901936,24.9593711 84.3901936,25.4243629 C84.3901936,25.8893547 84.3099299,26.3265088 84.1503468,26.7337633 C83.9907636,27.1410177 83.7688581,27.4936279 83.4846302,27.7905628 C83.2004023,28.0874977 82.8689605,28.3215401 82.4893604,28.488566 C82.1107046,28.6566229 81.7018319,28.7411669 81.2646308,28.7411669 C80.8142099,28.7411669 80.4006158,28.6566229 80.0210157,28.488566 C79.6423599,28.3215401 79.3137509,28.0874977 79.0351887,27.7905628 C78.7566264,27.4936279 78.538498,27.1410177 78.3789149,26.7337633 C78.2183875,26.3265088 78.1390681,25.8893547 78.1390681,25.4243629" id="Fill-7" fill="#FFFFFF"></path>
                            <path d="M99.4861436,17.0701404 L106.800996,17.0701404 L104.338609,9.50268404 C104.179336,9.02265883 103.991725,8.45590637 103.777732,7.80444357 C103.563739,7.15398924 103.3517,6.44907826 103.14357,5.6907191 C102.947165,6.46117974 102.744898,7.17516682 102.536767,7.83368881 C102.328637,8.49120234 102.13321,9.05997171 101.949508,9.53999693 L99.4861436,17.0701404 Z M116.687675,27.6357374 L111.873318,27.6357374 C111.333938,27.6357374 110.890317,27.5056465 110.540502,27.2464732 C110.191664,26.9873 109.949334,26.6555178 109.814489,26.2511268 L108.234457,21.4327225 L98.0526827,21.4327225 L96.4726511,26.2511268 C96.3495317,26.605095 96.1111102,26.9237672 95.755432,27.2091604 C95.3997539,27.493545 94.9649277,27.6357374 94.4509533,27.6357374 L89.5994648,27.6357374 L99.963964,0 L106.323176,0 L116.687675,27.6357374 Z" id="Fill-9" fill="#02BFE7"></path>
                            <path d="M129.189439,22.3268508 C130.019755,22.3268508 130.76149,22.1852007 131.414646,21.9038955 C132.066828,21.6225904 132.618749,21.2195858 133.071383,20.6938844 C133.52207,20.1691804 133.867629,19.5277648 134.106113,18.7716325 C134.343625,18.0145027 134.46238,17.1546266 134.46238,16.1920044 L134.46238,0 L140.650323,0 L140.650323,16.1920044 C140.650323,17.8678649 140.385556,19.4060654 139.854076,20.8076035 C139.32357,22.208144 138.56334,23.4151626 137.574359,24.4276616 C136.586352,25.4411582 135.384196,26.2292116 133.96789,26.7918219 C132.552557,27.3544322 130.959092,27.6357374 129.189439,27.6357374 C127.408106,27.6357374 125.8088,27.3544322 124.392494,26.7918219 C122.977162,26.2292116 121.775005,25.4411582 120.786024,24.4276616 C119.798017,23.4151626 119.040707,22.208144 118.516041,20.8076035 C117.991376,19.4060654 117.729529,17.8678649 117.729529,16.1920044 L117.729529,0 L123.917472,0 L123.917472,16.1730512 C123.917472,17.1356734 124.036227,17.9955495 124.273738,18.7526793 C124.512223,19.5098091 124.856809,20.1532198 125.308469,20.6849065 C125.76013,21.2165932 126.312051,21.6225904 126.965206,21.9038955 C127.618362,22.1852007 128.359124,22.3268508 129.189439,22.3268508" id="Fill-11" fill="#02BFE7"></path>
                        </g>
                    </g>
                </g>
                <path d="M305.359375,13.7246094 C305.359375,16.081392 304.719733,17.8831318 303.44043,19.1298828 C302.161126,20.3766338 300.320325,21 297.917969,21 L293.962891,21 L293.962891,6.72265625 L298.337891,6.72265625 C300.557954,6.72265625 302.283197,7.33788447 303.513672,8.56835938 C304.744147,9.79883428 305.359375,11.5175671 305.359375,13.7246094 L305.359375,13.7246094 Z M303.601562,13.7832031 C303.601562,11.9212146 303.134445,10.5182339 302.200195,9.57421875 C301.265946,8.63020361 299.877613,8.15820312 298.035156,8.15820312 L295.623047,8.15820312 L295.623047,19.5644531 L297.644531,19.5644531 C299.623708,19.5644531 301.111323,19.0778043 302.107422,18.1044922 C303.103521,17.13118 303.601562,15.6907647 303.601562,13.7832031 L303.601562,13.7832031 Z M314.880859,21 L314.558594,19.4765625 L314.480469,19.4765625 C313.946612,20.1471388 313.414391,20.6012358 312.883789,20.8388672 C312.353187,21.0764986 311.690759,21.1953125 310.896484,21.1953125 C309.835281,21.1953125 309.003584,20.9218777 308.401367,20.375 C307.799151,19.8281223 307.498047,19.0501353 307.498047,18.0410156 C307.498047,15.8795465 309.226545,14.7467453 312.683594,14.6425781 L314.5,14.5839844 L314.5,13.9199219 C314.5,13.0800739 314.319338,12.4599629 313.958008,12.0595703 C313.596678,11.6591777 313.018884,11.4589844 312.224609,11.4589844 C311.332678,11.4589844 310.323573,11.7324191 309.197266,12.2792969 L308.699219,11.0390625 C309.226565,10.7526027 309.804359,10.5279956 310.432617,10.3652344 C311.060876,10.2024731 311.690752,10.1210938 312.322266,10.1210938 C313.598314,10.1210938 314.543942,10.404294 315.15918,10.9707031 C315.774417,11.5371122 316.082031,12.4453063 316.082031,13.6953125 L316.082031,21 L314.880859,21 Z M311.21875,19.8574219 C312.22787,19.8574219 313.020505,19.5807319 313.59668,19.0273438 C314.172854,18.4739556 314.460938,17.6992237 314.460938,16.703125 L314.460938,15.7363281 L312.839844,15.8046875 C311.550775,15.8502606 310.621422,16.050454 310.051758,16.4052734 C309.482094,16.7600929 309.197266,17.3118452 309.197266,18.0605469 C309.197266,18.6464873 309.374673,19.0924464 309.729492,19.3984375 C310.084312,19.7044286 310.580726,19.8574219 311.21875,19.8574219 L311.21875,19.8574219 Z M326.326172,18.0800781 C326.326172,19.0761769 325.955082,19.8443983 325.212891,20.3847656 C324.470699,20.9251329 323.429043,21.1953125 322.087891,21.1953125 C320.668613,21.1953125 319.561853,20.9707054 318.767578,20.5214844 L318.767578,19.0175781 C319.281904,19.2779961 319.833656,19.4830722 320.422852,19.6328125 C321.012047,19.7825528 321.580075,19.8574219 322.126953,19.8574219 C322.973312,19.8574219 323.624347,19.7223321 324.080078,19.4521484 C324.53581,19.1819648 324.763672,18.7701851 324.763672,18.2167969 C324.763672,17.8001281 324.58301,17.4436864 324.22168,17.1474609 C323.86035,16.8512355 323.155604,16.5013041 322.107422,16.0976562 C321.111323,15.7265606 320.403322,15.4026707 319.983398,15.1259766 C319.563474,14.8492825 319.250978,14.535158 319.045898,14.1835938 C318.840819,13.8320295 318.738281,13.4121118 318.738281,12.9238281 C318.738281,12.0514279 319.093095,11.3629583 319.802734,10.8583984 C320.512373,10.3538386 321.485671,10.1015625 322.722656,10.1015625 C323.875006,10.1015625 325.001297,10.3359352 326.101562,10.8046875 L325.525391,12.1230469 C324.451167,11.6803363 323.477869,11.4589844 322.605469,11.4589844 C321.837236,11.4589844 321.257814,11.5794259 320.867188,11.8203125 C320.476561,12.0611991 320.28125,12.3932271 320.28125,12.8164062 C320.28125,13.102866 320.354491,13.3470042 320.500977,13.5488281 C320.647462,13.7506521 320.883462,13.9427074 321.208984,14.125 C321.534507,14.3072926 322.159501,14.5709618 323.083984,14.9160156 C324.353522,15.3782575 325.211261,15.8437477 325.657227,16.3125 C326.103192,16.7812523 326.326172,17.3704392 326.326172,18.0800781 L326.326172,18.0800781 Z M336.287109,21 L336.287109,14.0761719 C336.287109,13.2037717 336.088544,12.5527365 335.691406,12.1230469 C335.294269,11.6933572 334.67253,11.4785156 333.826172,11.4785156 C332.699864,11.4785156 331.877932,11.7845021 331.360352,12.3964844 C330.842771,13.0084666 330.583984,14.0110607 330.583984,15.4042969 L330.583984,21 L328.962891,21 L328.962891,5.8046875 L330.583984,5.8046875 L330.583984,10.4042969 C330.583984,10.9576851 330.557943,11.4166648 330.505859,11.78125 L330.603516,11.78125 C330.922528,11.2669245 331.376625,10.8616551 331.96582,10.5654297 C332.555016,10.2692042 333.22721,10.1210938 333.982422,10.1210938 C335.291022,10.1210938 336.272458,10.431963 336.926758,11.0537109 C337.581058,11.6754588 337.908203,12.6634047 337.908203,14.0175781 L337.908203,21 L336.287109,21 Z M346.21875,10.1210938 C347.625007,10.1210938 348.717119,10.6012322 349.495117,11.5615234 C350.273116,12.5218147 350.662109,13.8808506 350.662109,15.6386719 C350.662109,17.3964932 350.269861,18.7620394 349.485352,19.7353516 C348.700842,20.7086637 347.611986,21.1953125 346.21875,21.1953125 C345.522132,21.1953125 344.885745,21.0667331 344.30957,20.8095703 C343.733396,20.5524076 343.250002,20.1569037 342.859375,19.6230469 L342.742188,19.6230469 L342.400391,21 L341.238281,21 L341.238281,5.8046875 L342.859375,5.8046875 L342.859375,9.49609375 C342.859375,10.3229208 342.833334,11.0651009 342.78125,11.7226562 L342.859375,11.7226562 C343.614587,10.6549426 344.734368,10.1210938 346.21875,10.1210938 L346.21875,10.1210938 Z M345.984375,11.4785156 C344.877599,11.4785156 344.080081,11.7958953 343.591797,12.4306641 C343.103513,13.0654329 342.859375,14.1347581 342.859375,15.6386719 C342.859375,17.1425856 343.110024,18.2184212 343.611328,18.8662109 C344.112633,19.5140006 344.916661,19.8378906 346.023438,19.8378906 C347.019536,19.8378906 347.761716,19.4749385 348.25,18.7490234 C348.738284,18.0231083 348.982422,16.9798245 348.982422,15.6191406 C348.982422,14.2259045 348.738284,13.1875034 348.25,12.5039062 C347.761716,11.8203091 347.006516,11.4785156 345.984375,11.4785156 L345.984375,11.4785156 Z M362.732422,15.6386719 C362.732422,17.3834723 362.292973,18.7457633 361.414062,19.7255859 C360.535152,20.7054085 359.320971,21.1953125 357.771484,21.1953125 C356.814448,21.1953125 355.964847,20.9707054 355.222656,20.5214844 C354.480465,20.0722634 353.907554,19.4277386 353.503906,18.5878906 C353.100258,17.7480427 352.898438,16.7649796 352.898438,15.6386719 C352.898438,13.8938715 353.334631,12.5348356 354.207031,11.5615234 C355.079431,10.5882113 356.290357,10.1015625 357.839844,10.1015625 C359.337247,10.1015625 360.527014,10.5996044 361.40918,11.5957031 C362.291346,12.5918019 362.732422,13.9394446 362.732422,15.6386719 L362.732422,15.6386719 Z M354.578125,15.6386719 C354.578125,17.0058662 354.85156,18.0475225 355.398438,18.7636719 C355.945315,19.4798213 356.749344,19.8378906 357.810547,19.8378906 C358.87175,19.8378906 359.677406,19.4814489 360.227539,18.7685547 C360.777672,18.0556605 361.052734,17.0123767 361.052734,15.6386719 C361.052734,14.277988 360.777672,13.2444697 360.227539,12.5380859 C359.677406,11.8317022 358.86524,11.4785156 357.791016,11.4785156 C356.729812,11.4785156 355.929039,11.8268194 355.388672,12.5234375 C354.848305,13.2200556 354.578125,14.2584566 354.578125,15.6386719 L354.578125,15.6386719 Z M372.15625,21 L371.833984,19.4765625 L371.755859,19.4765625 C371.222003,20.1471388 370.689781,20.6012358 370.15918,20.8388672 C369.628578,21.0764986 368.96615,21.1953125 368.171875,21.1953125 C367.110672,21.1953125 366.278974,20.9218777 365.676758,20.375 C365.074541,19.8281223 364.773438,19.0501353 364.773438,18.0410156 C364.773438,15.8795465 366.501936,14.7467453 369.958984,14.6425781 L371.775391,14.5839844 L371.775391,13.9199219 C371.775391,13.0800739 371.594728,12.4599629 371.233398,12.0595703 C370.872069,11.6591777 370.294275,11.4589844 369.5,11.4589844 C368.608068,11.4589844 367.598964,11.7324191 366.472656,12.2792969 L365.974609,11.0390625 C366.501956,10.7526027 367.079749,10.5279956 367.708008,10.3652344 C368.336266,10.2024731 368.966143,10.1210938 369.597656,10.1210938 C370.873704,10.1210938 371.819333,10.404294 372.43457,10.9707031 C373.049808,11.5371122 373.357422,12.4453063 373.357422,13.6953125 L373.357422,21 L372.15625,21 Z M368.494141,19.8574219 C369.50326,19.8574219 370.295896,19.5807319 370.87207,19.0273438 C371.448245,18.4739556 371.736328,17.6992237 371.736328,16.703125 L371.736328,15.7363281 L370.115234,15.8046875 C368.826165,15.8502606 367.896813,16.050454 367.327148,16.4052734 C366.757484,16.7600929 366.472656,17.3118452 366.472656,18.0605469 C366.472656,18.6464873 366.650063,19.0924464 367.004883,19.3984375 C367.359702,19.7044286 367.856117,19.8574219 368.494141,19.8574219 L368.494141,19.8574219 Z M381.580078,10.1015625 C382.055341,10.1015625 382.481769,10.1406246 382.859375,10.21875 L382.634766,11.7226562 C382.192055,11.6249995 381.801434,11.5761719 381.462891,11.5761719 C380.597001,11.5761719 379.856448,11.9277309 379.241211,12.6308594 C378.625973,13.3339879 378.318359,14.2096302 378.318359,15.2578125 L378.318359,21 L376.697266,21 L376.697266,10.296875 L378.035156,10.296875 L378.220703,12.2792969 L378.298828,12.2792969 C378.695966,11.5826788 379.174476,11.0455748 379.734375,10.6679688 C380.294274,10.2903627 380.909502,10.1015625 381.580078,10.1015625 L381.580078,10.1015625 Z M392.146484,19.5644531 L392.058594,19.5644531 C391.309892,20.6516981 390.190112,21.1953125 388.699219,21.1953125 C387.299472,21.1953125 386.210616,20.7168017 385.432617,19.7597656 C384.654619,18.8027296 384.265625,17.4420661 384.265625,15.6777344 C384.265625,13.9134026 384.656246,12.5429736 385.4375,11.5664062 C386.218754,10.5898389 387.305983,10.1015625 388.699219,10.1015625 C390.151049,10.1015625 391.264319,10.628901 392.039062,11.6835938 L392.166016,11.6835938 L392.097656,10.9121094 L392.058594,10.1601562 L392.058594,5.8046875 L393.679688,5.8046875 L393.679688,21 L392.361328,21 L392.146484,19.5644531 Z M388.904297,19.8378906 C390.011073,19.8378906 390.813474,19.5367869 391.311523,18.9345703 C391.809573,18.3323538 392.058594,17.3606838 392.058594,16.0195312 L392.058594,15.6777344 C392.058594,14.1607997 391.806318,13.0784538 391.301758,12.4306641 C390.797198,11.7828744 389.991542,11.4589844 388.884766,11.4589844 C387.93424,11.4589844 387.206708,11.8284468 386.702148,12.5673828 C386.197589,13.3063188 385.945312,14.3496026 385.945312,15.6972656 C385.945312,17.06446 386.195961,18.0963507 386.697266,18.7929688 C387.19857,19.4895868 387.93424,19.8378906 388.904297,19.8378906 L388.904297,19.8378906 Z" id="Dashboard" fill="#FFFFFF"></path>
                <path d="M159.824219,13.4414062 L160.820312,13.4414062 C161.751307,13.4414062 162.447914,13.2574888 162.910156,12.8896484 C163.372398,12.5218081 163.603516,11.9863316 163.603516,11.2832031 C163.603516,10.5735642 163.409833,10.0494809 163.022461,9.7109375 C162.635089,9.37239414 162.027999,9.203125 161.201172,9.203125 L159.824219,9.203125 L159.824219,13.4414062 Z M166.660156,11.1757812 C166.660156,12.7122473 166.180018,13.8873657 165.219727,14.7011719 C164.259435,15.514978 162.893889,15.921875 161.123047,15.921875 L159.824219,15.921875 L159.824219,21 L156.796875,21 L156.796875,6.72265625 L161.357422,6.72265625 C163.089201,6.72265625 164.40592,7.09537388 165.307617,7.84082031 C166.209314,8.58626675 166.660156,9.69790928 166.660156,11.1757812 L166.660156,11.1757812 Z M173.642578,11.9960938 C173.011065,11.9960938 172.516278,12.1962871 172.158203,12.5966797 C171.800128,12.9970723 171.595052,13.5651005 171.542969,14.3007812 L175.722656,14.3007812 C175.709635,13.5651005 175.51758,12.9970723 175.146484,12.5966797 C174.775389,12.1962871 174.274092,11.9960938 173.642578,11.9960938 L173.642578,11.9960938 Z M174.0625,21.1953125 C172.304679,21.1953125 170.930995,20.7102913 169.941406,19.7402344 C168.951818,18.7701774 168.457031,17.3964933 168.457031,15.6191406 C168.457031,13.7897044 168.914383,12.3753305 169.829102,11.3759766 C170.74382,10.3766226 172.008455,9.87695312 173.623047,9.87695312 C175.166023,9.87695312 176.367183,10.3164019 177.226562,11.1953125 C178.085942,12.0742231 178.515625,13.2884037 178.515625,14.8378906 L178.515625,16.2832031 L171.474609,16.2832031 C171.507162,17.1295615 171.75781,17.7903622 172.226562,18.265625 C172.695315,18.7408878 173.35286,18.9785156 174.199219,18.9785156 C174.856774,18.9785156 175.478513,18.9101569 176.064453,18.7734375 C176.650394,18.6367181 177.262367,18.4186213 177.900391,18.1191406 L177.900391,20.4238281 C177.379555,20.6842461 176.82292,20.8779291 176.230469,21.0048828 C175.638018,21.1318366 174.915369,21.1953125 174.0625,21.1953125 L174.0625,21.1953125 Z M187.03125,9.87695312 C187.434898,9.87695312 187.770181,9.90624971 188.037109,9.96484375 L187.8125,12.7578125 C187.571613,12.692708 187.278648,12.6601562 186.933594,12.6601562 C185.983068,12.6601562 185.242516,12.9042944 184.711914,13.3925781 C184.181312,13.8808618 183.916016,14.5644487 183.916016,15.4433594 L183.916016,21 L180.9375,21 L180.9375,10.0820312 L183.193359,10.0820312 L183.632812,11.9179688 L183.779297,11.9179688 C184.11784,11.3059865 184.575192,10.8128274 185.151367,10.4384766 C185.727542,10.0641257 186.354163,9.87695312 187.03125,9.87695312 L187.03125,9.87695312 Z M196.054688,12.3183594 L193.476562,12.3183594 L193.476562,21 L190.498047,21 L190.498047,12.3183594 L188.857422,12.3183594 L188.857422,10.8828125 L190.498047,10.0820312 L190.498047,9.28125 C190.498047,8.0377542 190.804033,7.12956016 191.416016,6.55664062 C192.027998,5.98372109 193.007806,5.69726562 194.355469,5.69726562 C195.38412,5.69726562 196.298824,5.85025889 197.099609,6.15625 L196.337891,8.34375 C195.738929,8.15494697 195.185549,8.06054688 194.677734,8.06054688 C194.254555,8.06054688 193.948569,8.18587114 193.759766,8.43652344 C193.570963,8.68717573 193.476562,9.00781055 193.476562,9.3984375 L193.476562,10.0820312 L196.054688,10.0820312 L196.054688,12.3183594 Z M200.136719,15.5214844 C200.136719,16.6022189 200.314126,17.4192681 200.668945,17.9726562 C201.023765,18.5260444 201.601558,18.8027344 202.402344,18.8027344 C203.196619,18.8027344 203.767902,18.527672 204.116211,17.9775391 C204.46452,17.4274061 204.638672,16.6087294 204.638672,15.5214844 C204.638672,14.4407498 204.462892,13.630211 204.111328,13.0898438 C203.759764,12.5494765 203.183598,12.2792969 202.382812,12.2792969 C201.588538,12.2792969 201.015627,12.5478489 200.664062,13.0849609 C200.312498,13.622073 200.136719,14.4342394 200.136719,15.5214844 L200.136719,15.5214844 Z M207.685547,15.5214844 C207.685547,17.298837 207.216802,18.6887971 206.279297,19.6914062 C205.341792,20.6940154 204.036467,21.1953125 202.363281,21.1953125 C201.315099,21.1953125 200.390629,20.9658226 199.589844,20.5068359 C198.789058,20.0478493 198.17383,19.3886762 197.744141,18.5292969 C197.314451,17.6699176 197.099609,16.6673234 197.099609,15.5214844 C197.099609,13.7376213 197.5651,12.3509164 198.496094,11.3613281 C199.427088,10.3717398 200.735669,9.87695312 202.421875,9.87695312 C203.470057,9.87695312 204.394527,10.1048154 205.195312,10.5605469 C205.996098,11.0162783 206.611326,11.6705687 207.041016,12.5234375 C207.470705,13.3763063 207.685547,14.3756453 207.685547,15.5214844 L207.685547,15.5214844 Z M216.240234,9.87695312 C216.643882,9.87695312 216.979165,9.90624971 217.246094,9.96484375 L217.021484,12.7578125 C216.780598,12.692708 216.487632,12.6601562 216.142578,12.6601562 C215.192053,12.6601562 214.4515,12.9042944 213.920898,13.3925781 C213.390297,13.8808618 213.125,14.5644487 213.125,15.4433594 L213.125,21 L210.146484,21 L210.146484,10.0820312 L212.402344,10.0820312 L212.841797,11.9179688 L212.988281,11.9179688 C213.326825,11.3059865 213.784177,10.8128274 214.360352,10.4384766 C214.936526,10.0641257 215.563148,9.87695312 216.240234,9.87695312 L216.240234,9.87695312 Z M229.003906,21 L226.025391,21 L226.025391,14.6230469 C226.025391,13.8352825 225.893556,13.2444681 225.629883,12.8505859 C225.36621,12.4567038 224.951175,12.2597656 224.384766,12.2597656 C223.623043,12.2597656 223.069663,12.5397107 222.724609,13.0996094 C222.379556,13.659508 222.207031,14.5807228 222.207031,15.8632812 L222.207031,21 L219.228516,21 L219.228516,10.0820312 L221.503906,10.0820312 L221.904297,11.4785156 L222.070312,11.4785156 C222.363283,10.977211 222.786456,10.5849624 223.339844,10.3017578 C223.893232,10.0185533 224.527991,9.87695312 225.244141,9.87695312 C226.878263,9.87695312 227.985023,10.410802 228.564453,11.4785156 L228.828125,11.4785156 C229.121095,10.9707006 229.552406,10.5768243 230.12207,10.296875 C230.691735,10.0169257 231.334632,9.87695312 232.050781,9.87695312 C233.287767,9.87695312 234.22363,10.1943328 234.858398,10.8291016 C235.493167,11.4638704 235.810547,12.4811128 235.810547,13.8808594 L235.810547,21 L232.822266,21 L232.822266,14.6230469 C232.822266,13.8352825 232.690431,13.2444681 232.426758,12.8505859 C232.163085,12.4567038 231.74805,12.2597656 231.181641,12.2597656 C230.45247,12.2597656 229.907228,12.5201797 229.545898,13.0410156 C229.184569,13.5618516 229.003906,14.3886662 229.003906,15.5214844 L229.003906,21 Z M245.800781,21 L245.224609,19.515625 L245.146484,19.515625 C244.64518,20.1471386 244.129234,20.5849597 243.598633,20.8291016 C243.068031,21.0732434 242.376306,21.1953125 241.523438,21.1953125 C240.475255,21.1953125 239.650068,20.8958363 239.047852,20.296875 C238.445635,19.6979137 238.144531,18.8450576 238.144531,17.7382812 C238.144531,16.5794213 238.549801,15.7249376 239.360352,15.1748047 C240.170902,14.6246717 241.393221,14.3203128 243.027344,14.2617188 L244.921875,14.203125 L244.921875,13.7246094 C244.921875,12.617833 244.355474,12.0644531 243.222656,12.0644531 C242.350256,12.0644531 241.324876,12.3281224 240.146484,12.8554688 L239.160156,10.84375 C240.416673,10.1861946 241.809888,9.85742188 243.339844,9.85742188 C244.804695,9.85742188 245.92773,10.1764291 246.708984,10.8144531 C247.490238,11.4524771 247.880859,12.4225195 247.880859,13.7246094 L247.880859,21 L245.800781,21 Z M244.921875,15.9414062 L243.769531,15.9804688 C242.903642,16.0065105 242.259117,16.162759 241.835938,16.4492188 C241.412758,16.7356785 241.201172,17.1718721 241.201172,17.7578125 C241.201172,18.5976604 241.682938,19.0175781 242.646484,19.0175781 C243.336592,19.0175781 243.888344,18.8190124 244.301758,18.421875 C244.715171,18.0247376 244.921875,17.4973991 244.921875,16.8398438 L244.921875,15.9414062 Z M261.025391,21 L258.046875,21 L258.046875,14.6230469 C258.046875,13.8352825 257.906902,13.2444681 257.626953,12.8505859 C257.347004,12.4567038 256.901045,12.2597656 256.289062,12.2597656 C255.455725,12.2597656 254.853517,12.5380832 254.482422,13.0947266 C254.111326,13.65137 253.925781,14.5742123 253.925781,15.8632812 L253.925781,21 L250.947266,21 L250.947266,10.0820312 L253.222656,10.0820312 L253.623047,11.4785156 L253.789062,11.4785156 C254.121095,10.9511692 254.578448,10.5524102 255.161133,10.2822266 C255.743818,10.0120429 256.406246,9.87695312 257.148438,9.87695312 C258.417975,9.87695312 259.381507,10.2203742 260.039062,10.9072266 C260.696618,11.594079 261.025391,12.58528 261.025391,13.8808594 L261.025391,21 Z M268.525391,21.1953125 C265.126936,21.1953125 263.427734,19.3300968 263.427734,15.5996094 C263.427734,13.7441313 263.889969,12.3265023 264.814453,11.3466797 C265.738937,10.3668571 267.063793,9.87695312 268.789062,9.87695312 C270.05209,9.87695312 271.184891,10.1243465 272.1875,10.6191406 L271.308594,12.9238281 C270.839841,12.7350251 270.403648,12.5804042 270,12.4599609 C269.596352,12.3395176 269.19271,12.2792969 268.789062,12.2792969 C267.239576,12.2792969 266.464844,13.3795463 266.464844,15.5800781 C266.464844,17.7155055 267.239576,18.7832031 268.789062,18.7832031 C269.361982,18.7832031 269.892576,18.7067065 270.380859,18.5537109 C270.869143,18.4007154 271.357419,18.16146 271.845703,17.8359375 L271.845703,20.3847656 C271.36393,20.6907567 270.877281,20.9023432 270.385742,21.0195312 C269.894203,21.1367193 269.274092,21.1953125 268.525391,21.1953125 L268.525391,21.1953125 Z M278.896484,11.9960938 C278.264971,11.9960938 277.770184,12.1962871 277.412109,12.5966797 C277.054035,12.9970723 276.848959,13.5651005 276.796875,14.3007812 L280.976562,14.3007812 C280.963542,13.5651005 280.771486,12.9970723 280.400391,12.5966797 C280.029295,12.1962871 279.527998,11.9960938 278.896484,11.9960938 L278.896484,11.9960938 Z M279.316406,21.1953125 C277.558585,21.1953125 276.184901,20.7102913 275.195312,19.7402344 C274.205724,18.7701774 273.710938,17.3964933 273.710938,15.6191406 C273.710938,13.7897044 274.16829,12.3753305 275.083008,11.3759766 C275.997726,10.3766226 277.262362,9.87695312 278.876953,9.87695312 C280.41993,9.87695312 281.621089,10.3164019 282.480469,11.1953125 C283.339848,12.0742231 283.769531,13.2884037 283.769531,14.8378906 L283.769531,16.2832031 L276.728516,16.2832031 C276.761068,17.1295615 277.011716,17.7903622 277.480469,18.265625 C277.949221,18.7408878 278.606767,18.9785156 279.453125,18.9785156 C280.11068,18.9785156 280.732419,18.9101569 281.318359,18.7734375 C281.9043,18.6367181 282.516273,18.4186213 283.154297,18.1191406 L283.154297,20.4238281 C282.633461,20.6842461 282.076826,20.8779291 281.484375,21.0048828 C280.891924,21.1318366 280.169275,21.1953125 279.316406,21.1953125 L279.316406,21.1953125 Z" id="Performance" fill="#FFFFFF"></path>
            </g>
        </g>
    </g>
</svg>