<?xml version="1.0" encoding="UTF-8" standalone="no"?>
<svg width="434px" height="20px" viewBox="0 0 434 20" version="1.1" xmlns="http://www.w3.org/2000/svg" xmlns:xlink="http://www.w3.org/1999/xlink" xmlns:sketch="http://www.bohemiancoding.com/sketch/ns">
    <!-- Generator: Sketch 3.4.2 (15857) - http://www.bohemiancoding.com/sketch -->
    <title>Performance Measurem</title>
    <desc>Created with Sketch.</desc>
    <defs></defs>
    <g id="Page-1" stroke="none" stroke-width="1" fill="none" fill-rule="evenodd" sketch:type="MSPage">
        <path d="M11.21875,6.859375 C11.21875,8.59375867 10.626959,9.92772971 9.44335938,10.8613281 C8.25975971,11.7949265 6.56641727,12.2617188 4.36328125,12.2617188 L2.34765625,12.2617188 L2.34765625,19 L0.35546875,19 L0.35546875,1.8671875 L4.796875,1.8671875 C9.07814641,1.8671875 11.21875,3.53123336 11.21875,6.859375 L11.21875,6.859375 Z M2.34765625,10.5507812 L4.140625,10.5507812 C5.90625883,10.5507812 7.1835898,10.2656279 7.97265625,9.6953125 C8.7617227,9.12499715 9.15625,8.21094379 9.15625,6.953125 C9.15625,5.82030684 8.78515996,4.97656527 8.04296875,4.421875 C7.30077754,3.86718473 6.1445391,3.58984375 4.57421875,3.58984375 L2.34765625,3.58984375 L2.34765625,10.5507812 Z M19.9375,19.234375 C18.039053,19.234375 16.5410211,18.6562558 15.4433594,17.5 C14.3456976,16.3437442 13.796875,14.7382915 13.796875,12.6835938 C13.796875,10.6132709 14.3066355,8.96875609 15.3261719,7.75 C16.3457082,6.53124391 17.7148352,5.921875 19.4335938,5.921875 C21.0429768,5.921875 22.3164016,6.45116658 23.2539062,7.50976562 C24.1914109,8.56836467 24.6601562,9.96483508 24.6601562,11.6992188 L24.6601562,12.9296875 L15.8125,12.9296875 C15.8515627,14.4375075 16.2324183,15.5820273 16.9550781,16.3632812 C17.677738,17.1445352 18.6953059,17.5351562 20.0078125,17.5351562 C21.3906319,17.5351562 22.7578057,17.2460966 24.109375,16.6679688 L24.109375,18.4023438 C23.4218716,18.6992202 22.7714874,18.9121087 22.1582031,19.0410156 C21.5449188,19.1699225 20.8046918,19.234375 19.9375,19.234375 L19.9375,19.234375 Z M19.4101562,7.55078125 C18.3789011,7.55078125 17.5566437,7.88671539 16.9433594,8.55859375 C16.3300751,9.23047211 15.9687505,10.1601503 15.859375,11.3476562 L22.5742188,11.3476562 C22.5742188,10.1210876 22.300784,9.18164389 21.7539062,8.52929688 C21.2070285,7.87694986 20.4257863,7.55078125 19.4101562,7.55078125 L19.4101562,7.55078125 Z M33.8359375,5.921875 C34.4062529,5.921875 34.9179665,5.96874953 35.3710938,6.0625 L35.1015625,7.8671875 C34.5703098,7.74999941 34.1015645,7.69140625 33.6953125,7.69140625 C32.6562448,7.69140625 31.7675818,8.11327703 31.0292969,8.95703125 C30.2910119,9.80078547 29.921875,10.8515562 29.921875,12.109375 L29.921875,19 L27.9765625,19 L27.9765625,6.15625 L29.5820313,6.15625 L29.8046875,8.53515625 L29.8984375,8.53515625 C30.3750024,7.69921457 30.9492154,7.05468977 31.6210938,6.6015625 C32.2929721,6.14843523 33.031246,5.921875 33.8359375,5.921875 L33.8359375,5.921875 Z M43.5625,7.66796875 L40.2929688,7.66796875 L40.2929688,19 L38.3476562,19 L38.3476562,7.66796875 L36.0507812,7.66796875 L36.0507812,6.7890625 L38.3476562,6.0859375 L38.3476562,5.37109375 C38.3476562,2.21482797 39.7265487,0.63671875 42.484375,0.63671875 C43.1640659,0.63671875 43.9609329,0.773436133 44.875,1.046875 L44.3710938,2.60546875 C43.62109,2.36328004 42.9804714,2.2421875 42.4492188,2.2421875 C41.7148401,2.2421875 41.1718768,2.48632568 40.8203125,2.97460938 C40.4687482,3.46289307 40.2929688,4.24608836 40.2929688,5.32421875 L40.2929688,6.15625 L43.5625,6.15625 L43.5625,7.66796875 Z M56.9921875,12.5664062 C56.9921875,14.6601667 56.464849,16.294916 55.4101562,17.4707031 C54.3554635,18.6464903 52.8984468,19.234375 51.0390625,19.234375 C49.8906193,19.234375 48.8710982,18.9648464 47.9804688,18.4257812 C47.0898393,17.8867161 46.4023462,17.1132863 45.9179688,16.1054688 C45.4335913,15.0976512 45.1914062,13.9179755 45.1914062,12.5664062 C45.1914062,10.4726458 45.7148385,8.84180271 46.7617188,7.67382812 C47.808599,6.50585354 49.2617095,5.921875 51.1210938,5.921875 C52.9179777,5.921875 54.3456978,6.51952527 55.4042969,7.71484375 C56.4628959,8.91016223 56.9921875,10.5273336 56.9921875,12.5664062 L56.9921875,12.5664062 Z M47.2070312,12.5664062 C47.2070312,14.2070395 47.535153,15.457027 48.1914062,16.3164062 C48.8476595,17.1757855 49.8124936,17.6054688 51.0859375,17.6054688 C52.3593814,17.6054688 53.3261686,17.1777387 53.9863281,16.3222656 C54.6464877,15.4667926 54.9765625,14.214852 54.9765625,12.5664062 C54.9765625,10.9335856 54.6464877,9.69336361 53.9863281,8.84570312 C53.3261686,7.99804264 52.3515689,7.57421875 51.0625,7.57421875 C49.7890561,7.57421875 48.8281282,7.99218332 48.1796875,8.828125 C47.5312468,9.66406668 47.2070312,10.910148 47.2070312,12.5664062 L47.2070312,12.5664062 Z M66.2617188,5.921875 C66.8320341,5.921875 67.3437477,5.96874953 67.796875,6.0625 L67.5273438,7.8671875 C66.9960911,7.74999941 66.5273458,7.69140625 66.1210938,7.69140625 C65.0820261,7.69140625 64.1933631,8.11327703 63.4550781,8.95703125 C62.7167932,9.80078547 62.3476562,10.8515562 62.3476562,12.109375 L62.3476562,19 L60.4023438,19 L60.4023438,6.15625 L62.0078125,6.15625 L62.2304688,8.53515625 L62.3242188,8.53515625 C62.8007836,7.69921457 63.3749966,7.05468977 64.046875,6.6015625 C64.7187534,6.14843523 65.4570272,5.921875 66.2617188,5.921875 L66.2617188,5.921875 Z M86.5703125,19 L86.5703125,10.6445312 C86.5703125,9.62108863 86.3515647,8.85351818 85.9140625,8.34179688 C85.4765603,7.83007557 84.7968796,7.57421875 83.875,7.57421875 C82.6640564,7.57421875 81.7695341,7.92187152 81.1914062,8.6171875 C80.6132784,9.31250348 80.3242188,10.3828053 80.3242188,11.828125 L80.3242188,19 L78.3789062,19 L78.3789062,10.6445312 C78.3789062,9.62108863 78.1601584,8.85351818 77.7226562,8.34179688 C77.2851541,7.83007557 76.6015671,7.57421875 75.671875,7.57421875 C74.4531189,7.57421875 73.5605497,7.93944947 72.9941406,8.66992188 C72.4277315,9.40039428 72.1445312,10.5976479 72.1445312,12.2617188 L72.1445312,19 L70.1992188,19 L70.1992188,6.15625 L71.78125,6.15625 L72.0976562,7.9140625 L72.1914062,7.9140625 C72.5585956,7.28905937 73.0761685,6.80078301 73.7441406,6.44921875 C74.4121127,6.09765449 75.1601521,5.921875 75.9882812,5.921875 C77.9961038,5.921875 79.3085907,6.64843023 79.9257812,8.1015625 L80.0195312,8.1015625 C80.4023457,7.42968414 80.9570276,6.89843945 81.6835938,6.5078125 C82.4101599,6.11718555 83.2382766,5.921875 84.1679688,5.921875 C85.621101,5.921875 86.7089808,6.29491814 87.4316406,7.04101562 C88.1543005,7.78711311 88.515625,8.98046055 88.515625,10.6210938 L88.515625,19 L86.5703125,19 Z M100.421875,19 L100.035156,17.171875 L99.9414062,17.171875 C99.300778,17.9765665 98.6621126,18.5214829 98.0253906,18.8066406 C97.3886687,19.0917983 96.5937548,19.234375 95.640625,19.234375 C94.3671811,19.234375 93.3691442,18.9062533 92.6464844,18.25 C91.9238245,17.5937467 91.5625,16.6601623 91.5625,15.4492188 C91.5625,12.8554558 93.636698,11.4960944 97.7851562,11.3710938 L99.9648438,11.3007812 L99.9648438,10.5039062 C99.9648438,9.49608871 99.748049,8.75195553 99.3144531,8.27148438 C98.8808572,7.79101322 98.1875048,7.55078125 97.234375,7.55078125 C96.1640571,7.55078125 94.9531318,7.87890297 93.6015625,8.53515625 L93.0039062,7.046875 C93.6367219,6.70312328 94.3300744,6.43359473 95.0839844,6.23828125 C95.8378944,6.04296777 96.5937462,5.9453125 97.3515625,5.9453125 C98.8828202,5.9453125 100.017574,6.28515285 100.755859,6.96484375 C101.494144,7.64453465 101.863281,8.7343675 101.863281,10.234375 L101.863281,19 L100.421875,19 Z M96.0273438,17.6289062 C97.2382873,17.6289062 98.1894497,17.2968783 98.8808594,16.6328125 C99.5722691,15.9687467 99.9179688,15.0390685 99.9179688,13.84375 L99.9179688,12.6835938 L97.9726562,12.765625 C96.4257735,12.8203128 95.3105503,13.0605447 94.6269531,13.4863281 C93.943356,13.9121115 93.6015625,14.5742143 93.6015625,15.4726562 C93.6015625,16.1757848 93.814451,16.7109357 94.2402344,17.078125 C94.6660178,17.4453143 95.2617149,17.6289062 96.0273438,17.6289062 L96.0273438,17.6289062 Z M114.660156,19 L114.660156,10.6914062 C114.660156,9.64452602 114.421877,8.86328383 113.945312,8.34765625 C113.468748,7.83202867 112.722661,7.57421875 111.707031,7.57421875 C110.363275,7.57421875 109.378909,7.93749637 108.753906,8.6640625 C108.128903,9.39062863 107.816406,10.5898354 107.816406,12.2617188 L107.816406,19 L105.871094,19 L105.871094,6.15625 L107.453125,6.15625 L107.769531,7.9140625 L107.863281,7.9140625 C108.261721,7.28124684 108.820309,6.79101736 109.539062,6.44335937 C110.257816,6.09570139 111.058589,5.921875 111.941406,5.921875 C113.488289,5.921875 114.65234,6.29491814 115.433594,7.04101562 C116.214848,7.78711311 116.605469,8.98046055 116.605469,10.6210938 L116.605469,19 L114.660156,19 Z M125.734375,19.234375 C123.874991,19.234375 122.435552,18.6621151 121.416016,17.5175781 C120.396479,16.3730412 119.886719,14.7539167 119.886719,12.6601562 C119.886719,10.511708 120.404292,8.85156836 121.439453,7.6796875 C122.474615,6.50780664 123.949209,5.921875 125.863281,5.921875 C126.480472,5.921875 127.097653,5.98828059 127.714844,6.12109375 C128.332034,6.25390691 128.816404,6.41015535 129.167969,6.58984375 L128.570312,8.2421875 C128.140623,8.07031164 127.671878,7.92773494 127.164062,7.81445312 C126.656247,7.70117131 126.207033,7.64453125 125.816406,7.64453125 C123.207018,7.64453125 121.902344,9.30857711 121.902344,12.6367188 C121.902344,14.2148516 122.2207,15.425777 122.857422,16.2695312 C123.494144,17.1132855 124.437494,17.5351562 125.6875,17.5351562 C126.757818,17.5351562 127.855463,17.3046898 128.980469,16.84375 L128.980469,18.5664062 C128.121089,19.011721 127.039069,19.234375 125.734375,19.234375 L125.734375,19.234375 Z M137.453125,19.234375 C135.554678,19.234375 134.056646,18.6562558 132.958984,17.5 C131.861323,16.3437442 131.3125,14.7382915 131.3125,12.6835938 C131.3125,10.6132709 131.822261,8.96875609 132.841797,7.75 C133.861333,6.53124391 135.23046,5.921875 136.949219,5.921875 C138.558602,5.921875 139.832027,6.45116658 140.769531,7.50976562 C141.707036,8.56836467 142.175781,9.96483508 142.175781,11.6992188 L142.175781,12.9296875 L133.328125,12.9296875 C133.367188,14.4375075 133.748043,15.5820273 134.470703,16.3632812 C135.193363,17.1445352 136.210931,17.5351562 137.523438,17.5351562 C138.906257,17.5351562 140.273431,17.2460966 141.625,16.6679688 L141.625,18.4023438 C140.937497,18.6992202 140.287112,18.9121087 139.673828,19.0410156 C139.060544,19.1699225 138.320317,19.234375 137.453125,19.234375 L137.453125,19.234375 Z M136.925781,7.55078125 C135.894526,7.55078125 135.072269,7.88671539 134.458984,8.55859375 C133.8457,9.23047211 133.484376,10.1601503 133.375,11.3476562 L140.089844,11.3476562 C140.089844,10.1210876 139.816409,9.18164389 139.269531,8.52929688 C138.722654,7.87694986 137.941411,7.55078125 136.925781,7.55078125 L136.925781,7.55078125 Z M159.601562,19 L153.789062,3.8125 L153.695312,3.8125 C153.804688,5.01563102 153.859375,6.44530422 153.859375,8.1015625 L153.859375,19 L152.019531,19 L152.019531,1.8671875 L155.019531,1.8671875 L160.445312,16 L160.539062,16 L166.011719,1.8671875 L168.988281,1.8671875 L168.988281,19 L166.996094,19 L166.996094,7.9609375 C166.996094,6.69530617 167.050781,5.32031992 167.160156,3.8359375 L167.066406,3.8359375 L161.207031,19 L159.601562,19 Z M178.820312,19.234375 C176.921866,19.234375 175.423834,18.6562558 174.326172,17.5 C173.22851,16.3437442 172.679688,14.7382915 172.679688,12.6835938 C172.679688,10.6132709 173.189448,8.96875609 174.208984,7.75 C175.228521,6.53124391 176.597648,5.921875 178.316406,5.921875 C179.925789,5.921875 181.199214,6.45116658 182.136719,7.50976562 C183.074223,8.56836467 183.542969,9.96483508 183.542969,11.6992188 L183.542969,12.9296875 L174.695312,12.9296875 C174.734375,14.4375075 175.115231,15.5820273 175.837891,16.3632812 C176.56055,17.1445352 177.578118,17.5351562 178.890625,17.5351562 C180.273444,17.5351562 181.640618,17.2460966 182.992188,16.6679688 L182.992188,18.4023438 C182.304684,18.6992202 181.6543,18.9121087 181.041016,19.0410156 C180.427731,19.1699225 179.687504,19.234375 178.820312,19.234375 L178.820312,19.234375 Z M178.292969,7.55078125 C177.261714,7.55078125 176.439456,7.88671539 175.826172,8.55859375 C175.212888,9.23047211 174.851563,10.1601503 174.742188,11.3476562 L181.457031,11.3476562 C181.457031,10.1210876 181.183596,9.18164389 180.636719,8.52929688 C180.089841,7.87694986 179.308599,7.55078125 178.292969,7.55078125 L178.292969,7.55078125 Z M194.757812,19 L194.371094,17.171875 L194.277344,17.171875 C193.636716,17.9765665 192.99805,18.5214829 192.361328,18.8066406 C191.724606,19.0917983 190.929692,19.234375 189.976562,19.234375 C188.703119,19.234375 187.705082,18.9062533 186.982422,18.25 C186.259762,17.5937467 185.898438,16.6601623 185.898438,15.4492188 C185.898438,12.8554558 187.972636,11.4960944 192.121094,11.3710938 L194.300781,11.3007812 L194.300781,10.5039062 C194.300781,9.49608871 194.083987,8.75195553 193.650391,8.27148438 C193.216795,7.79101322 192.523442,7.55078125 191.570312,7.55078125 C190.499995,7.55078125 189.289069,7.87890297 187.9375,8.53515625 L187.339844,7.046875 C187.972659,6.70312328 188.666012,6.43359473 189.419922,6.23828125 C190.173832,6.04296777 190.929684,5.9453125 191.6875,5.9453125 C193.218758,5.9453125 194.353512,6.28515285 195.091797,6.96484375 C195.830082,7.64453465 196.199219,8.7343675 196.199219,10.234375 L196.199219,19 L194.757812,19 Z M190.363281,17.6289062 C191.574225,17.6289062 192.525387,17.2968783 193.216797,16.6328125 C193.908207,15.9687467 194.253906,15.0390685 194.253906,13.84375 L194.253906,12.6835938 L192.308594,12.765625 C190.761711,12.8203128 189.646488,13.0605447 188.962891,13.4863281 C188.279293,13.9121115 187.9375,14.5742143 187.9375,15.4726562 C187.9375,16.1757848 188.150388,16.7109357 188.576172,17.078125 C189.001955,17.4453143 189.597652,17.6289062 190.363281,17.6289062 L190.363281,17.6289062 Z M208.492188,15.4960938 C208.492188,16.6914122 208.046879,17.613278 207.15625,18.2617188 C206.265621,18.9101595 205.015633,19.234375 203.40625,19.234375 C201.703116,19.234375 200.375005,18.9648464 199.421875,18.4257812 L199.421875,16.6210938 C200.039066,16.9335953 200.701168,17.1796866 201.408203,17.359375 C202.115238,17.5390634 202.796872,17.6289062 203.453125,17.6289062 C204.468755,17.6289062 205.249997,17.4667985 205.796875,17.1425781 C206.343753,16.8183578 206.617188,16.3242221 206.617188,15.6601562 C206.617188,15.1601538 206.400393,14.7324237 205.966797,14.3769531 C205.533201,14.0214826 204.687506,13.6015649 203.429688,13.1171875 C202.234369,12.6718728 201.384768,12.2832048 200.880859,11.9511719 C200.376951,11.619139 200.001954,11.2421896 199.755859,10.8203125 C199.509764,10.3984354 199.386719,9.89453418 199.386719,9.30859375 C199.386719,8.26171352 199.812496,7.4355499 200.664062,6.83007812 C201.515629,6.22460635 202.683586,5.921875 204.167969,5.921875 C205.550788,5.921875 206.902337,6.20312219 208.222656,6.765625 L207.53125,8.34765625 C206.242181,7.81640359 205.074224,7.55078125 204.027344,7.55078125 C203.105464,7.55078125 202.410159,7.69531105 201.941406,7.984375 C201.472654,8.27343895 201.238281,8.67187246 201.238281,9.1796875 C201.238281,9.52343922 201.326171,9.81640504 201.501953,10.0585938 C201.677735,10.3007825 201.960936,10.5312489 202.351562,10.75 C202.742189,10.9687511 203.492182,11.2851542 204.601562,11.6992188 C206.125008,12.253909 207.154294,12.8124972 207.689453,13.375 C208.224612,13.9375028 208.492188,14.644527 208.492188,15.4960938 L208.492188,15.4960938 Z M213.484375,6.15625 L213.484375,14.4882812 C213.484375,15.5351615 213.722654,16.3164037 214.199219,16.8320312 C214.675784,17.3476588 215.42187,17.6054688 216.4375,17.6054688 C217.781257,17.6054688 218.763669,17.2382849 219.384766,16.5039062 C220.005862,15.7695276 220.316406,14.5703208 220.316406,12.90625 L220.316406,6.15625 L222.261719,6.15625 L222.261719,19 L220.65625,19 L220.375,17.2773438 L220.269531,17.2773438 C219.871092,17.9101594 219.318363,18.3945296 218.611328,18.7304688 C217.904293,19.0664079 217.097661,19.234375 216.191406,19.234375 C214.628898,19.234375 213.458988,18.863285 212.681641,18.1210938 C211.904293,17.3789025 211.515625,16.1914144 211.515625,14.5585938 L211.515625,6.15625 L213.484375,6.15625 Z M232.246094,5.921875 C232.816409,5.921875 233.328123,5.96874953 233.78125,6.0625 L233.511719,7.8671875 C232.980466,7.74999941 232.511721,7.69140625 232.105469,7.69140625 C231.066401,7.69140625 230.177738,8.11327703 229.439453,8.95703125 C228.701168,9.80078547 228.332031,10.8515562 228.332031,12.109375 L228.332031,19 L226.386719,19 L226.386719,6.15625 L227.992188,6.15625 L228.214844,8.53515625 L228.308594,8.53515625 C228.785159,7.69921457 229.359372,7.05468977 230.03125,6.6015625 C230.703128,6.14843523 231.441402,5.921875 232.246094,5.921875 L232.246094,5.921875 Z M241.128906,19.234375 C239.230459,19.234375 237.732427,18.6562558 236.634766,17.5 C235.537104,16.3437442 234.988281,14.7382915 234.988281,12.6835938 C234.988281,10.6132709 235.498042,8.96875609 236.517578,7.75 C237.537114,6.53124391 238.906241,5.921875 240.625,5.921875 C242.234383,5.921875 243.507808,6.45116658 244.445312,7.50976562 C245.382817,8.56836467 245.851562,9.96483508 245.851562,11.6992188 L245.851562,12.9296875 L237.003906,12.9296875 C237.042969,14.4375075 237.423825,15.5820273 238.146484,16.3632812 C238.869144,17.1445352 239.886712,17.5351562 241.199219,17.5351562 C242.582038,17.5351562 243.949212,17.2460966 245.300781,16.6679688 L245.300781,18.4023438 C244.613278,18.6992202 243.962894,18.9121087 243.349609,19.0410156 C242.736325,19.1699225 241.996098,19.234375 241.128906,19.234375 L241.128906,19.234375 Z M240.601562,7.55078125 C239.570307,7.55078125 238.74805,7.88671539 238.134766,8.55859375 C237.521481,9.23047211 237.160157,10.1601503 237.050781,11.3476562 L243.765625,11.3476562 C243.765625,10.1210876 243.49219,9.18164389 242.945312,8.52929688 C242.398435,7.87694986 241.617193,7.55078125 240.601562,7.55078125 L240.601562,7.55078125 Z M265.539062,19 L265.539062,10.6445312 C265.539062,9.62108863 265.320315,8.85351818 264.882812,8.34179688 C264.44531,7.83007557 263.76563,7.57421875 262.84375,7.57421875 C261.632806,7.57421875 260.738284,7.92187152 260.160156,8.6171875 C259.582028,9.31250348 259.292969,10.3828053 259.292969,11.828125 L259.292969,19 L257.347656,19 L257.347656,10.6445312 C257.347656,9.62108863 257.128908,8.85351818 256.691406,8.34179688 C256.253904,7.83007557 255.570317,7.57421875 254.640625,7.57421875 C253.421869,7.57421875 252.5293,7.93944947 251.962891,8.66992188 C251.396482,9.40039428 251.113281,10.5976479 251.113281,12.2617188 L251.113281,19 L249.167969,19 L249.167969,6.15625 L250.75,6.15625 L251.066406,7.9140625 L251.160156,7.9140625 C251.527346,7.28905937 252.044919,6.80078301 252.712891,6.44921875 C253.380863,6.09765449 254.128902,5.921875 254.957031,5.921875 C256.964854,5.921875 258.277341,6.64843023 258.894531,8.1015625 L258.988281,8.1015625 C259.371096,7.42968414 259.925778,6.89843945 260.652344,6.5078125 C261.37891,6.11718555 262.207027,5.921875 263.136719,5.921875 C264.589851,5.921875 265.677731,6.29491814 266.400391,7.04101562 C267.12305,7.78711311 267.484375,8.98046055 267.484375,10.6210938 L267.484375,19 L265.539062,19 Z M276.917969,19.234375 C275.019522,19.234375 273.52149,18.6562558 272.423828,17.5 C271.326166,16.3437442 270.777344,14.7382915 270.777344,12.6835938 C270.777344,10.6132709 271.287104,8.96875609 272.306641,7.75 C273.326177,6.53124391 274.695304,5.921875 276.414062,5.921875 C278.023446,5.921875 279.29687,6.45116658 280.234375,7.50976562 C281.17188,8.56836467 281.640625,9.96483508 281.640625,11.6992188 L281.640625,12.9296875 L272.792969,12.9296875 C272.832031,14.4375075 273.212887,15.5820273 273.935547,16.3632812 C274.658207,17.1445352 275.675775,17.5351562 276.988281,17.5351562 C278.371101,17.5351562 279.738274,17.2460966 281.089844,16.6679688 L281.089844,18.4023438 C280.40234,18.6992202 279.751956,18.9121087 279.138672,19.0410156 C278.525388,19.1699225 277.785161,19.234375 276.917969,19.234375 L276.917969,19.234375 Z M276.390625,7.55078125 C275.35937,7.55078125 274.537112,7.88671539 273.923828,8.55859375 C273.310544,9.23047211 272.949219,10.1601503 272.839844,11.3476562 L279.554688,11.3476562 C279.554688,10.1210876 279.281253,9.18164389 278.734375,8.52929688 C278.187497,7.87694986 277.406255,7.55078125 276.390625,7.55078125 L276.390625,7.55078125 Z M293.746094,19 L293.746094,10.6914062 C293.746094,9.64452602 293.507815,8.86328383 293.03125,8.34765625 C292.554685,7.83202867 291.808599,7.57421875 290.792969,7.57421875 C289.449212,7.57421875 288.464847,7.93749637 287.839844,8.6640625 C287.214841,9.39062863 286.902344,10.5898354 286.902344,12.2617188 L286.902344,19 L284.957031,19 L284.957031,6.15625 L286.539062,6.15625 L286.855469,7.9140625 L286.949219,7.9140625 C287.347658,7.28124684 287.906246,6.79101736 288.625,6.44335937 C289.343754,6.09570139 290.144527,5.921875 291.027344,5.921875 C292.574226,5.921875 293.738277,6.29491814 294.519531,7.04101562 C295.300785,7.78711311 295.691406,8.98046055 295.691406,10.6210938 L295.691406,19 L293.746094,19 Z M303.835938,17.6289062 C304.179689,17.6289062 304.511717,17.6035159 304.832031,17.5527344 C305.152345,17.5019529 305.406249,17.449219 305.59375,17.3945312 L305.59375,18.8828125 C305.382811,18.9843755 305.072268,19.068359 304.662109,19.1347656 C304.251951,19.2011722 303.882814,19.234375 303.554688,19.234375 C301.0703,19.234375 299.828125,17.9257943 299.828125,15.3085938 L299.828125,7.66796875 L297.988281,7.66796875 L297.988281,6.73046875 L299.828125,5.921875 L300.648438,3.1796875 L301.773438,3.1796875 L301.773438,6.15625 L305.5,6.15625 L305.5,7.66796875 L301.773438,7.66796875 L301.773438,15.2265625 C301.773438,16.0000039 301.957029,16.5937479 302.324219,17.0078125 C302.691408,17.4218771 303.195309,17.6289062 303.835938,17.6289062 L303.835938,17.6289062 Z M328.363281,10.2695312 C328.363281,13.0976704 327.595711,15.2597581 326.060547,16.7558594 C324.525383,18.2519606 322.316421,19 319.433594,19 L314.6875,19 L314.6875,1.8671875 L319.9375,1.8671875 C322.601576,1.8671875 324.671868,2.60546137 326.148438,4.08203125 C327.625007,5.55860113 328.363281,7.62108051 328.363281,10.2695312 L328.363281,10.2695312 Z M326.253906,10.3398438 C326.253906,8.10545758 325.693365,6.42188066 324.572266,5.2890625 C323.451166,4.15624434 321.785167,3.58984375 319.574219,3.58984375 L316.679688,3.58984375 L316.679688,17.2773438 L319.105469,17.2773438 C321.480481,17.2773438 323.265619,16.6933652 324.460938,15.5253906 C325.656256,14.357416 326.253906,12.6289177 326.253906,10.3398438 L326.253906,10.3398438 Z M339.789062,19 L339.402344,17.171875 L339.308594,17.171875 C338.667966,17.9765665 338.0293,18.5214829 337.392578,18.8066406 C336.755856,19.0917983 335.960942,19.234375 335.007812,19.234375 C333.734369,19.234375 332.736332,18.9062533 332.013672,18.25 C331.291012,17.5937467 330.929688,16.6601623 330.929688,15.4492188 C330.929688,12.8554558 333.003886,11.4960944 337.152344,11.3710938 L339.332031,11.3007812 L339.332031,10.5039062 C339.332031,9.49608871 339.115237,8.75195553 338.681641,8.27148438 C338.248045,7.79101322 337.554692,7.55078125 336.601562,7.55078125 C335.531245,7.55078125 334.320319,7.87890297 332.96875,8.53515625 L332.371094,7.046875 C333.003909,6.70312328 333.697262,6.43359473 334.451172,6.23828125 C335.205082,6.04296777 335.960934,5.9453125 336.71875,5.9453125 C338.250008,5.9453125 339.384762,6.28515285 340.123047,6.96484375 C340.861332,7.64453465 341.230469,8.7343675 341.230469,10.234375 L341.230469,19 L339.789062,19 Z M335.394531,17.6289062 C336.605475,17.6289062 337.556637,17.2968783 338.248047,16.6328125 C338.939457,15.9687467 339.285156,15.0390685 339.285156,13.84375 L339.285156,12.6835938 L337.339844,12.765625 C335.792961,12.8203128 334.677738,13.0605447 333.994141,13.4863281 C333.310543,13.9121115 332.96875,14.5742143 332.96875,15.4726562 C332.96875,16.1757848 333.181638,16.7109357 333.607422,17.078125 C334.033205,17.4453143 334.628902,17.6289062 335.394531,17.6289062 L335.394531,17.6289062 Z M353.523438,15.4960938 C353.523438,16.6914122 353.078129,17.613278 352.1875,18.2617188 C351.296871,18.9101595 350.046883,19.234375 348.4375,19.234375 C346.734366,19.234375 345.406255,18.9648464 344.453125,18.4257812 L344.453125,16.6210938 C345.070316,16.9335953 345.732418,17.1796866 346.439453,17.359375 C347.146488,17.5390634 347.828122,17.6289062 348.484375,17.6289062 C349.500005,17.6289062 350.281247,17.4667985 350.828125,17.1425781 C351.375003,16.8183578 351.648438,16.3242221 351.648438,15.6601562 C351.648438,15.1601538 351.431643,14.7324237 350.998047,14.3769531 C350.564451,14.0214826 349.718756,13.6015649 348.460938,13.1171875 C347.265619,12.6718728 346.416018,12.2832048 345.912109,11.9511719 C345.408201,11.619139 345.033204,11.2421896 344.787109,10.8203125 C344.541014,10.3984354 344.417969,9.89453418 344.417969,9.30859375 C344.417969,8.26171352 344.843746,7.4355499 345.695312,6.83007812 C346.546879,6.22460635 347.714836,5.921875 349.199219,5.921875 C350.582038,5.921875 351.933587,6.20312219 353.253906,6.765625 L352.5625,8.34765625 C351.273431,7.81640359 350.105474,7.55078125 349.058594,7.55078125 C348.136714,7.55078125 347.441409,7.69531105 346.972656,7.984375 C346.503904,8.27343895 346.269531,8.67187246 346.269531,9.1796875 C346.269531,9.52343922 346.357421,9.81640504 346.533203,10.0585938 C346.708985,10.3007825 346.992186,10.5312489 347.382812,10.75 C347.773439,10.9687511 348.523432,11.2851542 349.632812,11.6992188 C351.156258,12.253909 352.185544,12.8124972 352.720703,13.375 C353.255862,13.9375028 353.523438,14.644527 353.523438,15.4960938 L353.523438,15.4960938 Z M365.476562,19 L365.476562,10.6914062 C365.476562,9.64452602 365.238284,8.86328383 364.761719,8.34765625 C364.285154,7.83202867 363.539068,7.57421875 362.523438,7.57421875 C361.171868,7.57421875 360.18555,7.94140258 359.564453,8.67578125 C358.943356,9.41015992 358.632812,10.6132729 358.632812,12.2851563 L358.632812,19 L356.6875,19 L356.6875,0.765625 L358.632812,0.765625 L358.632812,6.28515625 C358.632812,6.94922207 358.601563,7.49999781 358.539062,7.9375 L358.65625,7.9375 C359.039064,7.32030941 359.583981,6.83398615 360.291016,6.47851562 C360.99805,6.1230451 361.804683,5.9453125 362.710938,5.9453125 C364.281258,5.9453125 365.45898,6.31835564 366.244141,7.06445312 C367.029301,7.81055061 367.421875,8.99608563 367.421875,10.6210938 L367.421875,19 L365.476562,19 Z M377.394531,5.9453125 C379.08204,5.9453125 380.392573,6.52147861 381.326172,7.67382812 C382.25977,8.82617764 382.726562,10.4570207 382.726562,12.5664062 C382.726562,14.6757918 382.255864,16.3144473 381.314453,17.4824219 C380.373042,18.6503965 379.066415,19.234375 377.394531,19.234375 C376.55859,19.234375 375.794925,19.0800797 375.103516,18.7714844 C374.412106,18.4628891 373.832034,17.9882845 373.363281,17.3476562 L373.222656,17.3476562 L372.8125,19 L371.417969,19 L371.417969,0.765625 L373.363281,0.765625 L373.363281,5.1953125 C373.363281,6.18750496 373.332032,7.07812105 373.269531,7.8671875 L373.363281,7.8671875 C374.269536,6.58593109 375.613272,5.9453125 377.394531,5.9453125 L377.394531,5.9453125 Z M377.113281,7.57421875 C375.78515,7.57421875 374.828128,7.95507432 374.242188,8.71679688 C373.656247,9.47851943 373.363281,10.7617097 373.363281,12.5664062 C373.363281,14.3711028 373.664059,15.6621055 374.265625,16.4394531 C374.867191,17.2168008 375.832025,17.6054688 377.160156,17.6054688 C378.355475,17.6054688 379.246091,17.1699262 379.832031,16.2988281 C380.417972,15.42773 380.710938,14.1757894 380.710938,12.5429688 C380.710938,10.8710854 380.417972,9.6250041 379.832031,8.8046875 C379.246091,7.9843709 378.33985,7.57421875 377.113281,7.57421875 L377.113281,7.57421875 Z M397.210938,12.5664062 C397.210938,14.6601667 396.683599,16.294916 395.628906,17.4707031 C394.574213,18.6464903 393.117197,19.234375 391.257812,19.234375 C390.109369,19.234375 389.089848,18.9648464 388.199219,18.4257812 C387.308589,17.8867161 386.621096,17.1132863 386.136719,16.1054688 C385.652341,15.0976512 385.410156,13.9179755 385.410156,12.5664062 C385.410156,10.4726458 385.933589,8.84180271 386.980469,7.67382812 C388.027349,6.50585354 389.480459,5.921875 391.339844,5.921875 C393.136728,5.921875 394.564448,6.51952527 395.623047,7.71484375 C396.681646,8.91016223 397.210938,10.5273336 397.210938,12.5664062 L397.210938,12.5664062 Z M387.425781,12.5664062 C387.425781,14.2070395 387.753903,15.457027 388.410156,16.3164062 C389.06641,17.1757855 390.031244,17.6054688 391.304688,17.6054688 C392.578131,17.6054688 393.544919,17.1777387 394.205078,16.3222656 C394.865238,15.4667926 395.195312,14.214852 395.195312,12.5664062 C395.195312,10.9335856 394.865238,9.69336361 394.205078,8.84570312 C393.544919,7.99804264 392.570319,7.57421875 391.28125,7.57421875 C390.007806,7.57421875 389.046878,7.99218332 388.398438,8.828125 C387.749997,9.66406668 387.425781,10.910148 387.425781,12.5664062 L387.425781,12.5664062 Z M408.519531,19 L408.132812,17.171875 L408.039062,17.171875 C407.398434,17.9765665 406.759769,18.5214829 406.123047,18.8066406 C405.486325,19.0917983 404.691411,19.234375 403.738281,19.234375 C402.464837,19.234375 401.4668,18.9062533 400.744141,18.25 C400.021481,17.5937467 399.660156,16.6601623 399.660156,15.4492188 C399.660156,12.8554558 401.734354,11.4960944 405.882812,11.3710938 L408.0625,11.3007812 L408.0625,10.5039062 C408.0625,9.49608871 407.845705,8.75195553 407.412109,8.27148438 C406.978513,7.79101322 406.285161,7.55078125 405.332031,7.55078125 C404.261713,7.55078125 403.050788,7.87890297 401.699219,8.53515625 L401.101562,7.046875 C401.734378,6.70312328 402.427731,6.43359473 403.181641,6.23828125 C403.935551,6.04296777 404.691402,5.9453125 405.449219,5.9453125 C406.980476,5.9453125 408.115231,6.28515285 408.853516,6.96484375 C409.591801,7.64453465 409.960938,8.7343675 409.960938,10.234375 L409.960938,19 L408.519531,19 Z M404.125,17.6289062 C405.335944,17.6289062 406.287106,17.2968783 406.978516,16.6328125 C407.669925,15.9687467 408.015625,15.0390685 408.015625,13.84375 L408.015625,12.6835938 L406.070312,12.765625 C404.52343,12.8203128 403.408207,13.0605447 402.724609,13.4863281 C402.041012,13.9121115 401.699219,14.5742143 401.699219,15.4726562 C401.699219,16.1757848 401.912107,16.7109357 402.337891,17.078125 C402.763674,17.4453143 403.359371,17.6289062 404.125,17.6289062 L404.125,17.6289062 Z M419.828125,5.921875 C420.39844,5.921875 420.910154,5.96874953 421.363281,6.0625 L421.09375,7.8671875 C420.562497,7.74999941 420.093752,7.69140625 419.6875,7.69140625 C418.648432,7.69140625 417.759769,8.11327703 417.021484,8.95703125 C416.283199,9.80078547 415.914062,10.8515562 415.914062,12.109375 L415.914062,19 L413.96875,19 L413.96875,6.15625 L415.574219,6.15625 L415.796875,8.53515625 L415.890625,8.53515625 C416.36719,7.69921457 416.941403,7.05468977 417.613281,6.6015625 C418.28516,6.14843523 419.023433,5.921875 419.828125,5.921875 L419.828125,5.921875 Z M432.027344,17.2773438 L431.921875,17.2773438 C431.023433,18.5820378 429.679696,19.234375 427.890625,19.234375 C426.210929,19.234375 424.904302,18.660162 423.970703,17.5117188 C423.037105,16.3632755 422.570312,14.7304793 422.570312,12.6132812 C422.570312,10.4960832 423.039058,8.85156836 423.976562,7.6796875 C424.914067,6.50780664 426.218742,5.921875 427.890625,5.921875 C429.632821,5.921875 430.968745,6.55468117 431.898438,7.8203125 L432.050781,7.8203125 L431.96875,6.89453125 L431.921875,5.9921875 L431.921875,0.765625 L433.867188,0.765625 L433.867188,19 L432.285156,19 L432.027344,17.2773438 Z M428.136719,17.6054688 C429.46485,17.6054688 430.427731,17.2441442 431.025391,16.5214844 C431.62305,15.7988245 431.921875,14.6328205 431.921875,13.0234375 L431.921875,12.6132812 C431.921875,10.7929596 431.619144,9.49414451 431.013672,8.71679688 C430.4082,7.93944924 429.441413,7.55078125 428.113281,7.55078125 C426.972651,7.55078125 426.099612,7.99413619 425.494141,8.88085938 C424.888669,9.76758256 424.585938,11.0195232 424.585938,12.6367188 C424.585938,14.277352 424.886716,15.5156208 425.488281,16.3515625 C426.089847,17.1875042 426.97265,17.6054688 428.136719,17.6054688 L428.136719,17.6054688 Z" id="Performance-Measurem" fill="#351B1B" sketch:type="MSShapeGroup"></path>
    </g>
</svg>