<?xml version="1.0" encoding="UTF-8" standalone="no"?>
<svg width="240px" height="54px" viewBox="0 0 240 54" version="1.1" xmlns="http://www.w3.org/2000/svg" xmlns:xlink="http://www.w3.org/1999/xlink">
    <title>Performance Dashboard - Editor</title>
    <defs></defs>
    <g id="Symbols" stroke="none" stroke-width="1" fill="none" fill-rule="evenodd">
        <g id="Header_2_1200" transform="translate(-151.000000, -42.000000)">
            <g id="Group-2" transform="translate(151.000000, 42.000000)">
                <rect id="Rectangle-194" fill="#3BC1F1" x="155" y="5" width="85" height="19.5922752" rx="9.79613761"></rect>
                <path d="M176.509883,19.5 L170.342891,19.5 L170.342891,8.79199219 L176.509883,8.79199219 L176.509883,10.6523438 L172.613399,10.6523438 L172.613399,13.003418 L176.238887,13.003418 L176.238887,14.8637695 L172.613399,14.8637695 L172.613399,17.625 L176.509883,17.625 L176.509883,19.5 Z M188.628047,14.043457 C188.628047,15.8061612 188.126343,17.1562453 187.12292,18.09375 C186.119497,19.0312547 184.670537,19.5 182.775996,19.5 L179.74377,19.5 L179.74377,8.79199219 L183.105586,8.79199219 C184.853642,8.79199219 186.21105,9.25341335 187.177852,10.1762695 C188.144654,11.0991257 188.628047,12.3881753 188.628047,14.043457 L188.628047,14.043457 Z M186.269649,14.1020508 C186.269649,11.8022346 185.254034,10.6523438 183.222774,10.6523438 L182.014278,10.6523438 L182.014278,17.625 L182.988399,17.625 C185.17591,17.625 186.269649,16.4506953 186.269649,14.1020508 L186.269649,14.1020508 Z M191.847285,19.5 L191.847285,8.79199219 L194.117793,8.79199219 L194.117793,19.5 L191.847285,19.5 Z M201.943965,19.5 L199.673457,19.5 L199.673457,10.6816406 L196.765742,10.6816406 L196.765742,8.79199219 L204.85168,8.79199219 L204.85168,10.6816406 L201.943965,10.6816406 L201.943965,19.5 Z M216.918574,14.1313477 C216.918574,15.9038175 216.479126,17.2661085 215.600215,18.2182617 C214.721304,19.1704149 213.461551,19.6464844 211.820918,19.6464844 C210.180285,19.6464844 208.920532,19.1704149 208.041621,18.2182617 C207.162711,17.2661085 206.723262,15.8989347 206.723262,14.1166992 C206.723262,12.3344637 207.163931,10.9733934 208.045283,10.0334473 C208.926636,9.09350116 210.190051,8.62353516 211.835567,8.62353516 C213.481083,8.62353516 214.739615,9.09716323 215.611201,10.0444336 C216.482788,10.991704 216.918574,12.353995 216.918574,14.1313477 L216.918574,14.1313477 Z M209.103633,14.1313477 C209.103633,15.3276427 209.330682,16.2285126 209.784785,16.8339844 C210.238889,17.4394562 210.917593,17.7421875 211.820918,17.7421875 C213.632451,17.7421875 214.538203,16.5385863 214.538203,14.1313477 C214.538203,11.7192262 213.637333,10.5131836 211.835567,10.5131836 C210.932242,10.5131836 210.251096,10.8171356 209.79211,11.4250488 C209.333123,12.032962 209.103633,12.9350526 209.103633,14.1313477 L209.103633,14.1313477 Z M222.408321,13.5454102 L223.140742,13.5454102 C223.858519,13.5454102 224.388299,13.4257824 224.730098,13.1865234 C225.071896,12.9472644 225.242793,12.5712916 225.242793,12.0585938 C225.242793,11.5507787 225.068234,11.1894542 224.719112,10.9746094 C224.369989,10.7597646 223.829223,10.6523438 223.096797,10.6523438 L222.408321,10.6523438 L222.408321,13.5454102 Z M222.408321,15.3911133 L222.408321,19.5 L220.137813,19.5 L220.137813,8.79199219 L223.25793,8.79199219 C224.713015,8.79199219 225.789665,9.05688212 226.48791,9.58666992 C227.186156,10.1164577 227.535274,10.920893 227.535274,12 C227.535274,12.629886 227.361936,13.1901831 227.015254,13.6809082 C226.668573,14.1716333 226.177855,14.556151 225.543086,14.8344727 C227.154422,17.2417113 228.204217,18.7968715 228.6925,19.5 L226.172969,19.5 L223.616817,15.3911133 L222.408321,15.3911133 Z" id="EDITOR" fill="#104059"></path>
                <g id="Group-3">
                    <g id="Group-3-Copy">
                        <g id="Group">
                            <path d="M13.4518937,23.7226236 C14.2674415,23.7226236 14.9891734,23.645652 15.6180183,23.4906827 C16.2477921,23.3357134 16.8413399,23.130456 17.4005196,22.8728579 L17.4005196,18.6076092 L14.8851399,18.6076092 C14.5117342,18.6076092 14.220998,18.4977965 14.0120022,18.2781711 C13.8011488,18.059572 13.6971153,17.7835008 13.6971153,17.4489312 L13.6971153,13.8589794 L22.7461658,13.8589794 L22.7461658,25.7300409 C22.0940991,26.2575524 21.4150952,26.7111712 20.7110119,27.0898711 C20.0069285,27.4695973 19.2545439,27.7826148 18.4575735,28.0268712 C17.6596743,28.2721537 16.8088295,28.4507277 15.9068968,28.5677244 C15.0040353,28.6826685 14.0342951,28.7411669 12.9986052,28.7411669 C11.1343633,28.7411669 9.41038082,28.3778613 7.82665766,27.6502238 C6.24200564,26.9236126 4.87099368,25.919904 3.71269294,24.6390978 C2.55346332,23.359318 1.64502857,21.8404132 0.987388689,20.0834099 C0.32881994,18.3274329 0,16.4195654 0,14.3608337 C0,12.2631031 0.313958022,10.3357362 0.942802935,8.57873287 C1.57257672,6.82275585 2.47265164,5.30795626 3.64209882,4.03330783 C4.81247488,2.75968569 6.22807259,1.76829247 7.88796307,1.06118074 C9.54785356,0.353042721 11.4018779,0 13.4518937,0 C14.5117342,0 15.5074828,0.0964709762 16.4400681,0.288386642 C17.3717246,0.481328594 18.2309293,0.745084348 19.0158243,1.08068019 C19.8025771,1.41524975 20.5215224,1.81344909 21.1735891,2.27733081 C21.8265846,2.74018624 22.408986,3.24204057 22.9207933,3.78186752 L21.209815,6.65854993 C21.0463339,6.92948969 20.8512712,7.1419311 20.6236981,7.29587414 C20.3970538,7.45084348 20.1490456,7.527815 19.881531,7.527815 C19.532276,7.527815 19.1700167,7.39952913 18.7984688,7.1419311 C18.3321761,6.83199243 17.8918917,6.56515781 17.4794735,6.34040097 C17.0661264,6.11564412 16.6434906,5.93193875 16.212495,5.78928486 C15.7814994,5.64868354 15.327282,5.54605484 14.8498429,5.48139876 C14.3714749,5.41674268 13.8364458,5.38492779 13.2419691,5.38492779 C12.1356851,5.38492779 11.1399365,5.60044805 10.2556524,6.03148858 C9.36951054,6.4635554 8.61526819,7.07009101 7.99292537,7.85520055 C7.36965368,8.64133638 6.88942795,9.58346782 6.55131931,10.6836475 C6.21321067,11.7838271 6.04415635,13.0102401 6.04415635,14.3608337 C6.04415635,15.853055 6.2308592,17.1790178 6.60333602,18.3366695 C6.97581285,19.4953475 7.49133563,20.473399 8.14990438,21.270824 C8.80754426,22.0692752 9.58872384,22.6768371 10.4906565,23.0955622 C11.393518,23.513261 12.3809067,23.7226236 13.4518937,23.7226236 L13.4518937,23.7226236 Z" id="Fill-1" fill="#FFFFFF"></path>
                            <path d="M47.985808,14.3608337 C47.985808,12.9712411 47.8183914,11.719171 47.4845092,10.6066759 C47.1506271,9.49315457 46.6702553,8.55102312 46.0443452,7.77822903 C45.4184351,7.00646122 44.6517428,6.41429363 43.7452195,6.00172626 C42.8386961,5.59121147 41.8066103,5.38492779 40.6499132,5.38492779 C39.4818013,5.38492779 38.4411544,5.59121147 37.5279725,6.00172626 C36.6157418,6.41429363 35.8461957,7.00646122 35.2202856,7.77822903 C34.5943755,8.55102312 34.1140038,9.49315457 33.7801216,10.6066759 C33.4462395,11.719171 33.2788228,12.9712411 33.2788228,14.3608337 C33.2788228,15.7627417 33.4462395,17.0219959 33.7801216,18.1344909 C34.1140038,19.2480123 34.5943755,20.1901438 35.2202856,20.9629379 C35.8461957,21.7347057 36.6157418,22.3227681 37.5279725,22.7281515 C38.4411544,23.1335348 39.4818013,23.3357134 40.6499132,23.3357134 C41.8066103,23.3357134 42.8386961,23.1335348 43.7452195,22.7281515 C44.6517428,22.3227681 45.4184351,21.7347057 46.0443452,20.9629379 C46.6702553,20.1901438 47.1506271,19.2480123 47.4845092,18.1344909 C47.8183914,17.0219959 47.985808,15.7627417 47.985808,14.3608337 M54.1764206,14.3608337 C54.1764206,16.3939082 53.8510995,18.2853551 53.2004574,20.0351744 C52.5507665,21.7849937 51.6356821,23.3080036 50.4552042,24.6011252 C49.2737751,25.8932205 47.8507332,26.9071921 46.1870299,27.639961 C44.5233266,28.3737561 42.6779381,28.7411669 40.6499132,28.7411669 C38.6218883,28.7411669 36.7736461,28.3737561 35.1042354,27.639961 C33.4338735,26.9071921 32.0060755,25.8932205 30.818939,24.6011252 C29.6318025,23.3080036 28.7138644,21.7849937 28.0641735,20.0351744 C27.4135313,18.2853551 27.0882103,16.3939082 27.0882103,14.3608337 C27.0882103,12.3277592 27.4135313,10.4363123 28.0641735,8.68546672 C28.7138644,6.93564741 29.6318025,5.41674268 30.818939,4.12977881 C32.0060755,2.84281494 33.4338735,1.83294855 35.1042354,1.09915336 C36.7736461,0.365358165 38.6218883,0 40.6499132,0 C42.6779381,0 44.5233266,0.369463313 46.1870299,1.10941623 C47.8507332,1.84936914 49.2737751,2.86334068 50.4552042,4.14927826 C51.6356821,5.43624214 52.5507665,6.95514687 53.2004574,8.70496617 C53.8510995,10.4547855 54.1764206,12.3400747 54.1764206,14.3608337" id="Fill-3" fill="#FFFFFF"></path>
                            <path d="M55.2182748,0 L60.0246937,0 C60.5423514,0 60.9669998,0.126061642 61.29676,0.379193419 C61.6265202,0.632325196 61.8623316,0.967144917 62.0041942,1.38466108 L66.9862973,16.1792554 C67.2108348,16.824691 67.4372514,17.5266022 67.6664864,18.284989 C67.8966608,19.0433759 68.1118035,19.8400855 68.3119144,20.6751178 C68.4763247,19.8400855 68.6679802,19.0433759 68.8859414,18.284989 C69.1039025,17.5266022 69.3190452,16.824691 69.5304299,16.1792554 L74.4787114,1.38466108 C74.5961474,1.02967149 74.8263219,0.710987661 75.1673559,0.426592596 C75.5093294,0.142197532 75.9274014,0 76.4225114,0 L81.2646308,0 L70.9443588,27.6357374 L65.5376073,27.6357374 L55.2182748,0 Z" id="Fill-5" fill="#FFFFFF"></path>
                            <path d="M78.1390681,25.4243629 C78.1390681,24.9593711 78.2183875,24.526341 78.3789149,24.1252727 C78.538498,23.7252354 78.7566264,23.3757183 79.0351887,23.0787834 C79.3137509,22.7818485 79.6423599,22.544713 80.0210157,22.37047 C80.4006158,22.1962269 80.8142099,22.1085899 81.2646308,22.1085899 C81.7018319,22.1085899 82.1107046,22.1962269 82.4893604,22.37047 C82.8689605,22.544713 83.2004023,22.7818485 83.4846302,23.0787834 C83.7688581,23.3757183 83.9907636,23.7252354 84.1503468,24.1252727 C84.3099299,24.526341 84.3901936,24.9593711 84.3901936,25.4243629 C84.3901936,25.8893547 84.3099299,26.3265088 84.1503468,26.7337633 C83.9907636,27.1410177 83.7688581,27.4936279 83.4846302,27.7905628 C83.2004023,28.0874977 82.8689605,28.3215401 82.4893604,28.488566 C82.1107046,28.6566229 81.7018319,28.7411669 81.2646308,28.7411669 C80.8142099,28.7411669 80.4006158,28.6566229 80.0210157,28.488566 C79.6423599,28.3215401 79.3137509,28.0874977 79.0351887,27.7905628 C78.7566264,27.4936279 78.538498,27.1410177 78.3789149,26.7337633 C78.2183875,26.3265088 78.1390681,25.8893547 78.1390681,25.4243629" id="Fill-7" fill="#FFFFFF"></path>
                            <path d="M99.4861436,17.0701404 L106.800996,17.0701404 L104.338609,9.50268404 C104.179336,9.02265883 103.991725,8.45590637 103.777732,7.80444357 C103.563739,7.15398924 103.3517,6.44907826 103.14357,5.6907191 C102.947165,6.46117974 102.744898,7.17516682 102.536767,7.83368881 C102.328637,8.49120234 102.13321,9.05997171 101.949508,9.53999693 L99.4861436,17.0701404 Z M116.687675,27.6357374 L111.873318,27.6357374 C111.333938,27.6357374 110.890317,27.5056465 110.540502,27.2464732 C110.191664,26.9873 109.949334,26.6555178 109.814489,26.2511268 L108.234457,21.4327225 L98.0526827,21.4327225 L96.4726511,26.2511268 C96.3495317,26.605095 96.1111102,26.9237672 95.755432,27.2091604 C95.3997539,27.493545 94.9649277,27.6357374 94.4509533,27.6357374 L89.5994648,27.6357374 L99.963964,0 L106.323176,0 L116.687675,27.6357374 Z" id="Fill-9" fill="#02BFE7"></path>
                            <path d="M129.189439,22.3268508 C130.019755,22.3268508 130.76149,22.1852007 131.414646,21.9038955 C132.066828,21.6225904 132.618749,21.2195858 133.071383,20.6938844 C133.52207,20.1691804 133.867629,19.5277648 134.106113,18.7716325 C134.343625,18.0145027 134.46238,17.1546266 134.46238,16.1920044 L134.46238,0 L140.650323,0 L140.650323,16.1920044 C140.650323,17.8678649 140.385556,19.4060654 139.854076,20.8076035 C139.32357,22.208144 138.56334,23.4151626 137.574359,24.4276616 C136.586352,25.4411582 135.384196,26.2292116 133.96789,26.7918219 C132.552557,27.3544322 130.959092,27.6357374 129.189439,27.6357374 C127.408106,27.6357374 125.8088,27.3544322 124.392494,26.7918219 C122.977162,26.2292116 121.775005,25.4411582 120.786024,24.4276616 C119.798017,23.4151626 119.040707,22.208144 118.516041,20.8076035 C117.991376,19.4060654 117.729529,17.8678649 117.729529,16.1920044 L117.729529,0 L123.917472,0 L123.917472,16.1730512 C123.917472,17.1356734 124.036227,17.9955495 124.273738,18.7526793 C124.512223,19.5098091 124.856809,20.1532198 125.308469,20.6849065 C125.76013,21.2165932 126.312051,21.6225904 126.965206,21.9038955 C127.618362,22.1852007 128.359124,22.3268508 129.189439,22.3268508" id="Fill-11" fill="#02BFE7"></path>
                        </g>
                    </g>
                </g>
                <path d="M149.359375,45.7246094 C149.359375,48.081392 148.719733,49.8831318 147.44043,51.1298828 C146.161126,52.3766338 144.320325,53 141.917969,53 L137.962891,53 L137.962891,38.7226562 L142.337891,38.7226562 C144.557954,38.7226562 146.283197,39.3378845 147.513672,40.5683594 C148.744147,41.7988343 149.359375,43.5175671 149.359375,45.7246094 L149.359375,45.7246094 Z M147.601562,45.7832031 C147.601562,43.9212146 147.134445,42.5182339 146.200195,41.5742188 C145.265946,40.6302036 143.877613,40.1582031 142.035156,40.1582031 L139.623047,40.1582031 L139.623047,51.5644531 L141.644531,51.5644531 C143.623708,51.5644531 145.111323,51.0778043 146.107422,50.1044922 C147.103521,49.13118 147.601562,47.6907647 147.601562,45.7832031 L147.601562,45.7832031 Z M158.880859,53 L158.558594,51.4765625 L158.480469,51.4765625 C157.946612,52.1471388 157.414391,52.6012358 156.883789,52.8388672 C156.353187,53.0764986 155.690759,53.1953125 154.896484,53.1953125 C153.835281,53.1953125 153.003584,52.9218777 152.401367,52.375 C151.799151,51.8281223 151.498047,51.0501353 151.498047,50.0410156 C151.498047,47.8795465 153.226545,46.7467453 156.683594,46.6425781 L158.5,46.5839844 L158.5,45.9199219 C158.5,45.0800739 158.319338,44.4599629 157.958008,44.0595703 C157.596678,43.6591777 157.018884,43.4589844 156.224609,43.4589844 C155.332678,43.4589844 154.323573,43.7324191 153.197266,44.2792969 L152.699219,43.0390625 C153.226565,42.7526027 153.804359,42.5279956 154.432617,42.3652344 C155.060876,42.2024731 155.690752,42.1210938 156.322266,42.1210938 C157.598314,42.1210938 158.543942,42.404294 159.15918,42.9707031 C159.774417,43.5371122 160.082031,44.4453063 160.082031,45.6953125 L160.082031,53 L158.880859,53 Z M155.21875,51.8574219 C156.22787,51.8574219 157.020505,51.5807319 157.59668,51.0273438 C158.172854,50.4739556 158.460938,49.6992237 158.460938,48.703125 L158.460938,47.7363281 L156.839844,47.8046875 C155.550775,47.8502606 154.621422,48.050454 154.051758,48.4052734 C153.482094,48.7600929 153.197266,49.3118452 153.197266,50.0605469 C153.197266,50.6464873 153.374673,51.0924464 153.729492,51.3984375 C154.084312,51.7044286 154.580726,51.8574219 155.21875,51.8574219 L155.21875,51.8574219 Z M170.326172,50.0800781 C170.326172,51.0761769 169.955082,51.8443983 169.212891,52.3847656 C168.470699,52.9251329 167.429043,53.1953125 166.087891,53.1953125 C164.668613,53.1953125 163.561853,52.9707054 162.767578,52.5214844 L162.767578,51.0175781 C163.281904,51.2779961 163.833656,51.4830722 164.422852,51.6328125 C165.012047,51.7825528 165.580075,51.8574219 166.126953,51.8574219 C166.973312,51.8574219 167.624347,51.7223321 168.080078,51.4521484 C168.53581,51.1819648 168.763672,50.7701851 168.763672,50.2167969 C168.763672,49.8001281 168.58301,49.4436864 168.22168,49.1474609 C167.86035,48.8512355 167.155604,48.5013041 166.107422,48.0976562 C165.111323,47.7265606 164.403322,47.4026707 163.983398,47.1259766 C163.563474,46.8492825 163.250978,46.535158 163.045898,46.1835938 C162.840819,45.8320295 162.738281,45.4121118 162.738281,44.9238281 C162.738281,44.0514279 163.093095,43.3629583 163.802734,42.8583984 C164.512373,42.3538386 165.485671,42.1015625 166.722656,42.1015625 C167.875006,42.1015625 169.001297,42.3359352 170.101562,42.8046875 L169.525391,44.1230469 C168.451167,43.6803363 167.477869,43.4589844 166.605469,43.4589844 C165.837236,43.4589844 165.257814,43.5794259 164.867188,43.8203125 C164.476561,44.0611991 164.28125,44.3932271 164.28125,44.8164062 C164.28125,45.102866 164.354491,45.3470042 164.500977,45.5488281 C164.647462,45.7506521 164.883462,45.9427074 165.208984,46.125 C165.534507,46.3072926 166.159501,46.5709618 167.083984,46.9160156 C168.353522,47.3782575 169.211261,47.8437477 169.657227,48.3125 C170.103192,48.7812523 170.326172,49.3704392 170.326172,50.0800781 L170.326172,50.0800781 Z M180.287109,53 L180.287109,46.0761719 C180.287109,45.2037717 180.088544,44.5527365 179.691406,44.1230469 C179.294269,43.6933572 178.67253,43.4785156 177.826172,43.4785156 C176.699864,43.4785156 175.877932,43.7845021 175.360352,44.3964844 C174.842771,45.0084666 174.583984,46.0110607 174.583984,47.4042969 L174.583984,53 L172.962891,53 L172.962891,37.8046875 L174.583984,37.8046875 L174.583984,42.4042969 C174.583984,42.9576851 174.557943,43.4166648 174.505859,43.78125 L174.603516,43.78125 C174.922528,43.2669245 175.376625,42.8616551 175.96582,42.5654297 C176.555016,42.2692042 177.22721,42.1210938 177.982422,42.1210938 C179.291022,42.1210938 180.272458,42.431963 180.926758,43.0537109 C181.581058,43.6754588 181.908203,44.6634047 181.908203,46.0175781 L181.908203,53 L180.287109,53 Z M190.21875,42.1210938 C191.625007,42.1210938 192.717119,42.6012322 193.495117,43.5615234 C194.273116,44.5218147 194.662109,45.8808506 194.662109,47.6386719 C194.662109,49.3964932 194.269861,50.7620394 193.485352,51.7353516 C192.700842,52.7086637 191.611986,53.1953125 190.21875,53.1953125 C189.522132,53.1953125 188.885745,53.0667331 188.30957,52.8095703 C187.733396,52.5524076 187.250002,52.1569037 186.859375,51.6230469 L186.742188,51.6230469 L186.400391,53 L185.238281,53 L185.238281,37.8046875 L186.859375,37.8046875 L186.859375,41.4960938 C186.859375,42.3229208 186.833334,43.0651009 186.78125,43.7226562 L186.859375,43.7226562 C187.614587,42.6549426 188.734368,42.1210938 190.21875,42.1210938 L190.21875,42.1210938 Z M189.984375,43.4785156 C188.877599,43.4785156 188.080081,43.7958953 187.591797,44.4306641 C187.103513,45.0654329 186.859375,46.1347581 186.859375,47.6386719 C186.859375,49.1425856 187.110024,50.2184212 187.611328,50.8662109 C188.112633,51.5140006 188.916661,51.8378906 190.023438,51.8378906 C191.019536,51.8378906 191.761716,51.4749385 192.25,50.7490234 C192.738284,50.0231083 192.982422,48.9798245 192.982422,47.6191406 C192.982422,46.2259045 192.738284,45.1875034 192.25,44.5039062 C191.761716,43.8203091 191.006516,43.4785156 189.984375,43.4785156 L189.984375,43.4785156 Z M206.732422,47.6386719 C206.732422,49.3834723 206.292973,50.7457633 205.414062,51.7255859 C204.535152,52.7054085 203.320971,53.1953125 201.771484,53.1953125 C200.814448,53.1953125 199.964847,52.9707054 199.222656,52.5214844 C198.480465,52.0722634 197.907554,51.4277386 197.503906,50.5878906 C197.100258,49.7480427 196.898438,48.7649796 196.898438,47.6386719 C196.898438,45.8938715 197.334631,44.5348356 198.207031,43.5615234 C199.079431,42.5882113 200.290357,42.1015625 201.839844,42.1015625 C203.337247,42.1015625 204.527014,42.5996044 205.40918,43.5957031 C206.291346,44.5918019 206.732422,45.9394446 206.732422,47.6386719 L206.732422,47.6386719 Z M198.578125,47.6386719 C198.578125,49.0058662 198.85156,50.0475225 199.398438,50.7636719 C199.945315,51.4798213 200.749344,51.8378906 201.810547,51.8378906 C202.87175,51.8378906 203.677406,51.4814489 204.227539,50.7685547 C204.777672,50.0556605 205.052734,49.0123767 205.052734,47.6386719 C205.052734,46.277988 204.777672,45.2444697 204.227539,44.5380859 C203.677406,43.8317022 202.86524,43.4785156 201.791016,43.4785156 C200.729812,43.4785156 199.929039,43.8268194 199.388672,44.5234375 C198.848305,45.2200556 198.578125,46.2584566 198.578125,47.6386719 L198.578125,47.6386719 Z M216.15625,53 L215.833984,51.4765625 L215.755859,51.4765625 C215.222003,52.1471388 214.689781,52.6012358 214.15918,52.8388672 C213.628578,53.0764986 212.96615,53.1953125 212.171875,53.1953125 C211.110672,53.1953125 210.278974,52.9218777 209.676758,52.375 C209.074541,51.8281223 208.773438,51.0501353 208.773438,50.0410156 C208.773438,47.8795465 210.501936,46.7467453 213.958984,46.6425781 L215.775391,46.5839844 L215.775391,45.9199219 C215.775391,45.0800739 215.594728,44.4599629 215.233398,44.0595703 C214.872069,43.6591777 214.294275,43.4589844 213.5,43.4589844 C212.608068,43.4589844 211.598964,43.7324191 210.472656,44.2792969 L209.974609,43.0390625 C210.501956,42.7526027 211.079749,42.5279956 211.708008,42.3652344 C212.336266,42.2024731 212.966143,42.1210938 213.597656,42.1210938 C214.873704,42.1210938 215.819333,42.404294 216.43457,42.9707031 C217.049808,43.5371122 217.357422,44.4453063 217.357422,45.6953125 L217.357422,53 L216.15625,53 Z M212.494141,51.8574219 C213.50326,51.8574219 214.295896,51.5807319 214.87207,51.0273438 C215.448245,50.4739556 215.736328,49.6992237 215.736328,48.703125 L215.736328,47.7363281 L214.115234,47.8046875 C212.826165,47.8502606 211.896813,48.050454 211.327148,48.4052734 C210.757484,48.7600929 210.472656,49.3118452 210.472656,50.0605469 C210.472656,50.6464873 210.650063,51.0924464 211.004883,51.3984375 C211.359702,51.7044286 211.856117,51.8574219 212.494141,51.8574219 L212.494141,51.8574219 Z M225.580078,42.1015625 C226.055341,42.1015625 226.481769,42.1406246 226.859375,42.21875 L226.634766,43.7226562 C226.192055,43.6249995 225.801434,43.5761719 225.462891,43.5761719 C224.597001,43.5761719 223.856448,43.9277309 223.241211,44.6308594 C222.625973,45.3339879 222.318359,46.2096302 222.318359,47.2578125 L222.318359,53 L220.697266,53 L220.697266,42.296875 L222.035156,42.296875 L222.220703,44.2792969 L222.298828,44.2792969 C222.695966,43.5826788 223.174476,43.0455748 223.734375,42.6679688 C224.294274,42.2903627 224.909502,42.1015625 225.580078,42.1015625 L225.580078,42.1015625 Z M236.146484,51.5644531 L236.058594,51.5644531 C235.309892,52.6516981 234.190112,53.1953125 232.699219,53.1953125 C231.299472,53.1953125 230.210616,52.7168017 229.432617,51.7597656 C228.654619,50.8027296 228.265625,49.4420661 228.265625,47.6777344 C228.265625,45.9134026 228.656246,44.5429736 229.4375,43.5664062 C230.218754,42.5898389 231.305983,42.1015625 232.699219,42.1015625 C234.151049,42.1015625 235.264319,42.628901 236.039062,43.6835938 L236.166016,43.6835938 L236.097656,42.9121094 L236.058594,42.1601562 L236.058594,37.8046875 L237.679688,37.8046875 L237.679688,53 L236.361328,53 L236.146484,51.5644531 Z M232.904297,51.8378906 C234.011073,51.8378906 234.813474,51.5367869 235.311523,50.9345703 C235.809573,50.3323538 236.058594,49.3606838 236.058594,48.0195312 L236.058594,47.6777344 C236.058594,46.1607997 235.806318,45.0784538 235.301758,44.4306641 C234.797198,43.7828744 233.991542,43.4589844 232.884766,43.4589844 C231.93424,43.4589844 231.206708,43.8284468 230.702148,44.5673828 C230.197589,45.3063188 229.945312,46.3496026 229.945312,47.6972656 C229.945312,49.06446 230.195961,50.0963507 230.697266,50.7929688 C231.19857,51.4895868 231.93424,51.8378906 232.904297,51.8378906 L232.904297,51.8378906 Z" id="Dashboard" fill="#FFFFFF"></path>
                <path d="M3.82421875,45.4414062 L4.8203125,45.4414062 C5.75130674,45.4414062 6.44791436,45.2574888 6.91015625,44.8896484 C7.37239814,44.5218081 7.60351562,43.9863316 7.60351562,43.2832031 C7.60351562,42.5735642 7.40983267,42.0494809 7.02246094,41.7109375 C6.63508921,41.3723941 6.02799893,41.203125 5.20117188,41.203125 L3.82421875,41.203125 L3.82421875,45.4414062 Z M10.6601562,43.1757812 C10.6601562,44.7122473 10.1800178,45.8873657 9.21972656,46.7011719 C8.2594353,47.514978 6.89388906,47.921875 5.12304688,47.921875 L3.82421875,47.921875 L3.82421875,53 L0.796875,53 L0.796875,38.7226562 L5.35742188,38.7226562 C7.08920137,38.7226562 8.40591997,39.0953739 9.30761719,39.8408203 C10.2093144,40.5862667 10.6601562,41.6979093 10.6601562,43.1757812 L10.6601562,43.1757812 Z M17.6425781,43.9960938 C17.0110646,43.9960938 16.5162778,44.1962871 16.1582031,44.5966797 C15.8001284,44.9970723 15.5950523,45.5651005 15.5429688,46.3007812 L19.7226562,46.3007812 C19.7096354,45.5651005 19.51758,44.9970723 19.1464844,44.5966797 C18.7753888,44.1962871 18.2740917,43.9960938 17.6425781,43.9960938 L17.6425781,43.9960938 Z M18.0625,53.1953125 C16.3046787,53.1953125 14.9309945,52.7102913 13.9414062,51.7402344 C12.951818,50.7701774 12.4570312,49.3964933 12.4570312,47.6191406 C12.4570312,45.7897044 12.9143834,44.3753305 13.8291016,43.3759766 C14.7438197,42.3766226 16.0084555,41.8769531 17.6230469,41.8769531 C19.1660233,41.8769531 20.3671832,42.3164019 21.2265625,43.1953125 C22.0859418,44.0742231 22.515625,45.2884037 22.515625,46.8378906 L22.515625,48.2832031 L15.4746094,48.2832031 C15.5071616,49.1295615 15.7578102,49.7903622 16.2265625,50.265625 C16.6953148,50.7408878 17.3528604,50.9785156 18.1992188,50.9785156 C18.8567741,50.9785156 19.4785127,50.9101569 20.0644531,50.7734375 C20.6503936,50.6367181 21.2623666,50.4186213 21.9003906,50.1191406 L21.9003906,52.4238281 C21.3795547,52.6842461 20.8229196,52.8779291 20.2304688,53.0048828 C19.6380179,53.1318366 18.9153688,53.1953125 18.0625,53.1953125 L18.0625,53.1953125 Z M31.03125,41.8769531 C31.4348979,41.8769531 31.770181,41.9062497 32.0371094,41.9648438 L31.8125,44.7578125 C31.5716134,44.692708 31.2786476,44.6601562 30.9335938,44.6601562 C29.9830682,44.6601562 29.2425157,44.9042944 28.7119141,45.3925781 C28.1813125,45.8808618 27.9160156,46.5644487 27.9160156,47.4433594 L27.9160156,53 L24.9375,53 L24.9375,42.0820312 L27.1933594,42.0820312 L27.6328125,43.9179688 L27.7792969,43.9179688 C28.1178402,43.3059865 28.5751924,42.8128274 29.1513672,42.4384766 C29.7275419,42.0641257 30.3541633,41.8769531 31.03125,41.8769531 L31.03125,41.8769531 Z M40.0546875,44.3183594 L37.4765625,44.3183594 L37.4765625,53 L34.4980469,53 L34.4980469,44.3183594 L32.8574219,44.3183594 L32.8574219,42.8828125 L34.4980469,42.0820312 L34.4980469,41.28125 C34.4980469,40.0377542 34.8040334,39.1295602 35.4160156,38.5566406 C36.0279979,37.9837211 37.0078058,37.6972656 38.3554688,37.6972656 C39.3841197,37.6972656 40.2988241,37.8502589 41.0996094,38.15625 L40.3378906,40.34375 C39.7389293,40.154947 39.1855494,40.0605469 38.6777344,40.0605469 C38.2545552,40.0605469 37.9485687,40.1858711 37.7597656,40.4365234 C37.5709626,40.6871757 37.4765625,41.0078105 37.4765625,41.3984375 L37.4765625,42.0820312 L40.0546875,42.0820312 L40.0546875,44.3183594 Z M44.1367188,47.5214844 C44.1367188,48.6022189 44.3141258,49.4192681 44.6689453,49.9726562 C45.0237648,50.5260444 45.6015585,50.8027344 46.4023438,50.8027344 C47.1966186,50.8027344 47.7679019,50.527672 48.1162109,49.9775391 C48.46452,49.4274061 48.6386719,48.6087294 48.6386719,47.5214844 C48.6386719,46.4407498 48.4628924,45.630211 48.1113281,45.0898438 C47.7597639,44.5494765 47.1835978,44.2792969 46.3828125,44.2792969 C45.5885377,44.2792969 45.0156268,44.5478489 44.6640625,45.0849609 C44.3124982,45.622073 44.1367188,46.4342394 44.1367188,47.5214844 L44.1367188,47.5214844 Z M51.6855469,47.5214844 C51.6855469,49.298837 51.2168016,50.6887971 50.2792969,51.6914062 C49.3417922,52.6940154 48.0364667,53.1953125 46.3632812,53.1953125 C45.3150989,53.1953125 44.390629,52.9658226 43.5898438,52.5068359 C42.7890585,52.0478493 42.1738303,51.3886762 41.7441406,50.5292969 C41.314451,49.6699176 41.0996094,48.6673234 41.0996094,47.5214844 C41.0996094,45.7376213 41.5650995,44.3509164 42.4960938,43.3613281 C43.427088,42.3717398 44.7356687,41.8769531 46.421875,41.8769531 C47.4700573,41.8769531 48.3945272,42.1048154 49.1953125,42.5605469 C49.9960978,43.0162783 50.611326,43.6705687 51.0410156,44.5234375 C51.4707053,45.3763063 51.6855469,46.3756453 51.6855469,47.5214844 L51.6855469,47.5214844 Z M60.2402344,41.8769531 C60.6438822,41.8769531 60.9791653,41.9062497 61.2460938,41.9648438 L61.0214844,44.7578125 C60.7805978,44.692708 60.4876319,44.6601562 60.1425781,44.6601562 C59.1920525,44.6601562 58.4515,44.9042944 57.9208984,45.3925781 C57.3902968,45.8808618 57.125,46.5644487 57.125,47.4433594 L57.125,53 L54.1464844,53 L54.1464844,42.0820312 L56.4023438,42.0820312 L56.8417969,43.9179688 L56.9882812,43.9179688 C57.3268246,43.3059865 57.7841768,42.8128274 58.3603516,42.4384766 C58.9365263,42.0641257 59.5631477,41.8769531 60.2402344,41.8769531 L60.2402344,41.8769531 Z M73.0039062,53 L70.0253906,53 L70.0253906,46.6230469 C70.0253906,45.8352825 69.893556,45.2444681 69.6298828,44.8505859 C69.3662096,44.4567038 68.9511747,44.2597656 68.3847656,44.2597656 C67.6230431,44.2597656 67.0696632,44.5397107 66.7246094,45.0996094 C66.3795556,45.659508 66.2070312,46.5807228 66.2070312,47.8632812 L66.2070312,53 L63.2285156,53 L63.2285156,42.0820312 L65.5039062,42.0820312 L65.9042969,43.4785156 L66.0703125,43.4785156 C66.3632827,42.977211 66.7864556,42.5849624 67.3398438,42.3017578 C67.8932319,42.0185533 68.5279912,41.8769531 69.2441406,41.8769531 C70.8782634,41.8769531 71.9850231,42.410802 72.5644531,43.4785156 L72.828125,43.4785156 C73.1210952,42.9707006 73.552406,42.5768243 74.1220703,42.296875 C74.6917346,42.0169257 75.3346318,41.8769531 76.0507812,41.8769531 C77.2877666,41.8769531 78.2236296,42.1943328 78.8583984,42.8291016 C79.4931672,43.4638704 79.8105469,44.4811128 79.8105469,45.8808594 L79.8105469,53 L76.8222656,53 L76.8222656,46.6230469 C76.8222656,45.8352825 76.690431,45.2444681 76.4267578,44.8505859 C76.1630846,44.4567038 75.7480497,44.2597656 75.1816406,44.2597656 C74.4524703,44.2597656 73.9072284,44.5201797 73.5458984,45.0410156 C73.1845685,45.5618516 73.0039062,46.3886662 73.0039062,47.5214844 L73.0039062,53 Z M89.8007812,53 L89.2246094,51.515625 L89.1464844,51.515625 C88.6451798,52.1471386 88.1292344,52.5849597 87.5986328,52.8291016 C87.0680312,53.0732434 86.3763063,53.1953125 85.5234375,53.1953125 C84.4752552,53.1953125 83.6500681,52.8958363 83.0478516,52.296875 C82.445635,51.6979137 82.1445312,50.8450576 82.1445312,49.7382812 C82.1445312,48.5794213 82.5498006,47.7249376 83.3603516,47.1748047 C84.1709025,46.6246717 85.393221,46.3203128 87.0273438,46.2617188 L88.921875,46.203125 L88.921875,45.7246094 C88.921875,44.617833 88.3554744,44.0644531 87.2226562,44.0644531 C86.3502561,44.0644531 85.3248757,44.3281224 84.1464844,44.8554688 L83.1601562,42.84375 C84.4166729,42.1861946 85.8098882,41.8574219 87.3398438,41.8574219 C88.8046948,41.8574219 89.9277305,42.1764291 90.7089844,42.8144531 C91.4902383,43.4524771 91.8808594,44.4225195 91.8808594,45.7246094 L91.8808594,53 L89.8007812,53 Z M88.921875,47.9414062 L87.7695312,47.9804688 C86.9036415,48.0065105 86.2591167,48.162759 85.8359375,48.4492188 C85.4127583,48.7356785 85.2011719,49.1718721 85.2011719,49.7578125 C85.2011719,50.5976604 85.6829379,51.0175781 86.6464844,51.0175781 C87.336592,51.0175781 87.8883443,50.8190124 88.3017578,50.421875 C88.7151713,50.0247376 88.921875,49.4973991 88.921875,48.8398438 L88.921875,47.9414062 Z M105.025391,53 L102.046875,53 L102.046875,46.6230469 C102.046875,45.8352825 101.906902,45.2444681 101.626953,44.8505859 C101.347004,44.4567038 100.901045,44.2597656 100.289062,44.2597656 C99.455725,44.2597656 98.8535175,44.5380832 98.4824219,45.0947266 C98.1113263,45.65137 97.9257812,46.5742123 97.9257812,47.8632812 L97.9257812,53 L94.9472656,53 L94.9472656,42.0820312 L97.2226562,42.0820312 L97.6230469,43.4785156 L97.7890625,43.4785156 C98.1210954,42.9511692 98.5784476,42.5524102 99.1611328,42.2822266 C99.743818,42.0120429 100.406246,41.8769531 101.148438,41.8769531 C102.417975,41.8769531 103.381507,42.2203742 104.039062,42.9072266 C104.696618,43.594079 105.025391,44.58528 105.025391,45.8808594 L105.025391,53 Z M112.525391,53.1953125 C109.126936,53.1953125 107.427734,51.3300968 107.427734,47.5996094 C107.427734,45.7441313 107.889969,44.3265023 108.814453,43.3466797 C109.738937,42.3668571 111.063793,41.8769531 112.789062,41.8769531 C114.05209,41.8769531 115.184891,42.1243465 116.1875,42.6191406 L115.308594,44.9238281 C114.839841,44.7350251 114.403648,44.5804042 114,44.4599609 C113.596352,44.3395176 113.19271,44.2792969 112.789062,44.2792969 C111.239576,44.2792969 110.464844,45.3795463 110.464844,47.5800781 C110.464844,49.7155055 111.239576,50.7832031 112.789062,50.7832031 C113.361982,50.7832031 113.892576,50.7067065 114.380859,50.5537109 C114.869143,50.4007154 115.357419,50.16146 115.845703,49.8359375 L115.845703,52.3847656 C115.36393,52.6907567 114.877281,52.9023432 114.385742,53.0195312 C113.894203,53.1367193 113.274092,53.1953125 112.525391,53.1953125 L112.525391,53.1953125 Z M122.896484,43.9960938 C122.264971,43.9960938 121.770184,44.1962871 121.412109,44.5966797 C121.054035,44.9970723 120.848959,45.5651005 120.796875,46.3007812 L124.976562,46.3007812 C124.963542,45.5651005 124.771486,44.9970723 124.400391,44.5966797 C124.029295,44.1962871 123.527998,43.9960938 122.896484,43.9960938 L122.896484,43.9960938 Z M123.316406,53.1953125 C121.558585,53.1953125 120.184901,52.7102913 119.195312,51.7402344 C118.205724,50.7701774 117.710938,49.3964933 117.710938,47.6191406 C117.710938,45.7897044 118.16829,44.3753305 119.083008,43.3759766 C119.997726,42.3766226 121.262362,41.8769531 122.876953,41.8769531 C124.41993,41.8769531 125.621089,42.3164019 126.480469,43.1953125 C127.339848,44.0742231 127.769531,45.2884037 127.769531,46.8378906 L127.769531,48.2832031 L120.728516,48.2832031 C120.761068,49.1295615 121.011716,49.7903622 121.480469,50.265625 C121.949221,50.7408878 122.606767,50.9785156 123.453125,50.9785156 C124.11068,50.9785156 124.732419,50.9101569 125.318359,50.7734375 C125.9043,50.6367181 126.516273,50.4186213 127.154297,50.1191406 L127.154297,52.4238281 C126.633461,52.6842461 126.076826,52.8779291 125.484375,53.0048828 C124.891924,53.1318366 124.169275,53.1953125 123.316406,53.1953125 L123.316406,53.1953125 Z" id="Performance" fill="#FFFFFF"></path>
            </g>
        </g>
    </g>
</svg>
